M48
; DRILL file {KiCad 9.0.1} date 2026-09-14T17:14:07+0900
; FORMAT={-:-/ absolute / metric / decimal}
; #@! TF.CreationDate,2026-09-14T17:14:07+09:00
; #@! TF.GenerationSoftware,Kicad,Pcbnew,9.0.1
; #@! TF.FileFunction,Plated,1,2,PTH
FMAT,2
METRIC
; #@! TA.AperFunction,Plated,PTH,ViaDrill
T1C0.300
; #@! TA.AperFunction,Plated,PTH,ComponentDrill
T2C0.800
; #@! TA.AperFunction,Plated,PTH,ComponentDrill
T3C1.000
; #@! TA.AperFunction,Plated,PTH,ComponentDrill
T4C1.300
%
G90
G05
T1
X255.9Y-38.1
X257.0Y-52.3
X258.4Y-57.9
X259.5Y-34.7
X269.1Y-59.1
X271.9Y-43.1
X274.9Y-25.9
X275.2Y-50.8
X276.5Y-30.5
X278.18Y-71.12
X278.7Y-47.1
T2
X266.07Y-40.64
X267.34Y-40.64
X268.61Y-40.64
X269.88Y-40.64
T3
X187.96Y-27.94
X187.96Y-30.48
X187.96Y-55.88
X187.96Y-58.42
X187.96Y-60.96
X187.96Y-63.5
X187.96Y-66.04
X187.96Y-68.58
X187.96Y-71.12
X187.96Y-73.66
X187.96Y-76.2
X187.96Y-78.74
X187.96Y-81.28
X187.96Y-83.82
X187.96Y-86.36
X187.96Y-88.9
X187.96Y-91.44
X187.96Y-93.98
X187.96Y-96.52
X187.96Y-99.06
X187.96Y-101.6
X190.5Y-55.88
X190.5Y-58.42
X190.5Y-60.96
X190.5Y-63.5
X190.5Y-66.04
X190.5Y-68.58
X190.5Y-71.12
X190.5Y-73.66
X190.5Y-76.2
X190.5Y-78.74
X190.5Y-81.28
X190.5Y-83.82
X190.5Y-86.36
X190.5Y-88.9
X190.5Y-91.44
X190.5Y-93.98
X190.5Y-96.52
X190.5Y-99.06
X190.5Y-101.6
X248.92Y-55.88
X248.92Y-58.42
X248.92Y-60.96
X248.92Y-63.5
X248.92Y-66.04
X248.92Y-68.58
X248.92Y-71.12
X248.92Y-73.66
X248.92Y-76.2
X248.92Y-78.74
X248.92Y-81.28
X248.92Y-83.82
X248.92Y-86.36
X248.92Y-88.9
X248.92Y-91.44
X248.92Y-93.98
X248.92Y-96.52
X248.92Y-99.06
X248.92Y-101.6
X251.46Y-27.94
X251.46Y-30.48
X251.46Y-55.88
X251.46Y-58.42
X251.46Y-60.96
X251.46Y-63.5
X251.46Y-66.04
X251.46Y-68.58
X251.46Y-71.12
X251.46Y-73.66
X251.46Y-76.2
X251.46Y-78.74
X251.46Y-81.28
X251.46Y-83.82
X251.46Y-86.36
X251.46Y-88.9
X251.46Y-91.44
X251.46Y-93.98
X251.46Y-96.52
X251.46Y-99.06
X251.46Y-101.6
X267.34Y-22.86
X269.88Y-22.86
X272.42Y-22.86
X274.96Y-22.86
T4
X264.16Y-71.12
X269.24Y-71.12
X274.32Y-71.12
M30
