%TF.GenerationSoftware,KiCad,Pcbnew,9.0.1*%
%TF.CreationDate,2026-09-14T17:13:18+09:00*%
%TF.ProjectId,parking_sensor_node,7061726b-696e-4675-9f73-656e736f725f,rev?*%
%TF.SameCoordinates,Original*%
%TF.FileFunction,Copper,L1,Top*%
%TF.FilePolarity,Positive*%
%FSLAX46Y46*%
G04 Gerber Fmt 4.6, Leading zero omitted, Abs format (unit mm)*
G04 Created by KiCad (PCBNEW 9.0.1) date 2026-09-14 17:13:18*
%MOMM*%
%LPD*%
G01*
G04 APERTURE LIST*
G04 Aperture macros list*
%AMRoundRect*
0 Rectangle with rounded corners*
0 $1 Rounding radius*
0 $2 $3 $4 $5 $6 $7 $8 $9 X,Y pos of 4 corners*
0 Add a 4 corners polygon primitive as box body*
4,1,4,$2,$3,$4,$5,$6,$7,$8,$9,$2,$3,0*
0 Add four circle primitives for the rounded corners*
1,1,$1+$1,$2,$3*
1,1,$1+$1,$4,$5*
1,1,$1+$1,$6,$7*
1,1,$1+$1,$8,$9*
0 Add four rect primitives between the rounded corners*
20,1,$1+$1,$2,$3,$4,$5,0*
20,1,$1+$1,$4,$5,$6,$7,0*
20,1,$1+$1,$6,$7,$8,$9,0*
20,1,$1+$1,$8,$9,$2,$3,0*%
G04 Aperture macros list end*
%TA.AperFunction,SMDPad,CuDef*%
%ADD10RoundRect,0.250000X-0.262500X-0.450000X0.262500X-0.450000X0.262500X0.450000X-0.262500X0.450000X0*%
%TD*%
%TA.AperFunction,ComponentPad*%
%ADD11R,1.700000X1.700000*%
%TD*%
%TA.AperFunction,ComponentPad*%
%ADD12C,1.700000*%
%TD*%
%TA.AperFunction,SMDPad,CuDef*%
%ADD13RoundRect,0.250000X-0.250000X-0.475000X0.250000X-0.475000X0.250000X0.475000X-0.250000X0.475000X0*%
%TD*%
%TA.AperFunction,SMDPad,CuDef*%
%ADD14R,1.000000X1.500000*%
%TD*%
%TA.AperFunction,ComponentPad*%
%ADD15RoundRect,0.250000X-1.050000X-1.050000X1.050000X-1.050000X1.050000X1.050000X-1.050000X1.050000X0*%
%TD*%
%TA.AperFunction,ComponentPad*%
%ADD16C,2.600000*%
%TD*%
%TA.AperFunction,SMDPad,CuDef*%
%ADD17RoundRect,0.150000X-0.825000X-0.150000X0.825000X-0.150000X0.825000X0.150000X-0.825000X0.150000X0*%
%TD*%
%TA.AperFunction,ComponentPad*%
%ADD18R,1.070000X1.800000*%
%TD*%
%TA.AperFunction,ComponentPad*%
%ADD19O,1.070000X1.800000*%
%TD*%
%TA.AperFunction,ViaPad*%
%ADD20C,0.600000*%
%TD*%
%TA.AperFunction,Conductor*%
%ADD21C,0.200000*%
%TD*%
G04 APERTURE END LIST*
D10*
%TO.P,R2,1*%
%TO.N,Net-(U1-PB5)*%
X256540000Y-55880000D03*
%TO.P,R2,2*%
%TO.N,GND*%
X258365000Y-55880000D03*
%TD*%
D11*
%TO.P,J2,1,Pin_1*%
%TO.N,+5V*%
X267340000Y-22860000D03*
D12*
%TO.P,J2,2,Pin_2*%
%TO.N,Net-(J2-Pin_2)*%
X269880000Y-22860000D03*
%TO.P,J2,3,Pin_3*%
%TO.N,Net-(J2-Pin_3)*%
X272420000Y-22860000D03*
%TO.P,J2,4,Pin_4*%
%TO.N,GND*%
X274960000Y-22860000D03*
%TD*%
D13*
%TO.P,C1,1*%
%TO.N,+3V3*%
X271780000Y-50800000D03*
%TO.P,C1,2*%
%TO.N,GND*%
X273680000Y-50800000D03*
%TD*%
D10*
%TO.P,R1,1*%
%TO.N,/RS485_A*%
X271780000Y-55880000D03*
%TO.P,R1,2*%
%TO.N,Net-(JP1-A)*%
X273605000Y-55880000D03*
%TD*%
%TO.P,R5,1*%
%TO.N,Net-(U1-PB12)*%
X272420000Y-35560000D03*
%TO.P,R5,2*%
%TO.N,Net-(D1-RA)*%
X274245000Y-35560000D03*
%TD*%
D14*
%TO.P,JP1,1,A*%
%TO.N,Net-(JP1-A)*%
X271780000Y-60960000D03*
%TO.P,JP1,2,B*%
%TO.N,/RS485_B*%
X273080000Y-60960000D03*
%TD*%
D10*
%TO.P,R6,1*%
%TO.N,Net-(U1-PB13)*%
X272420000Y-40640000D03*
%TO.P,R6,2*%
%TO.N,Net-(D1-GA)*%
X274245000Y-40640000D03*
%TD*%
D15*
%TO.P,J1,1,Pin_1*%
%TO.N,/RS485_A*%
X264160000Y-71120000D03*
D16*
%TO.P,J1,2,Pin_2*%
%TO.N,/RS485_B*%
X269240000Y-71120000D03*
%TO.P,J1,3,Pin_3*%
%TO.N,GND*%
X274320000Y-71120000D03*
%TD*%
D10*
%TO.P,R7,1*%
%TO.N,Net-(U1-PB14)*%
X272420000Y-45720000D03*
%TO.P,R7,2*%
%TO.N,Net-(D1-BA)*%
X274245000Y-45720000D03*
%TD*%
D12*
%TO.P,U1,1,PC10*%
%TO.N,unconnected-(U1-PC10-Pad1)*%
X187960000Y-55880000D03*
%TO.P,U1,2,PC11*%
%TO.N,unconnected-(U1-PC11-Pad2)*%
X190500000Y-55880000D03*
%TO.P,U1,3,PC12*%
%TO.N,unconnected-(U1-PC12-Pad3)*%
X187960000Y-58420000D03*
%TO.P,U1,4,PD2*%
%TO.N,unconnected-(U1-PD2-Pad4)*%
X190500000Y-58420000D03*
%TO.P,U1,5,VDD*%
%TO.N,unconnected-(U1-VDD-Pad5)*%
X187960000Y-60960000D03*
%TO.P,U1,6,E5V*%
%TO.N,unconnected-(U1-E5V-Pad6)*%
X190500000Y-60960000D03*
%TO.P,U1,7,~{BOOT0}*%
%TO.N,unconnected-(U1-~{BOOT0}-Pad7)*%
X187960000Y-63500000D03*
%TO.P,U1,8,GND*%
%TO.N,GND*%
X190500000Y-63500000D03*
%TO.P,U1,9,NC*%
%TO.N,unconnected-(U1-NC-Pad9)*%
X187960000Y-66040000D03*
%TO.P,U1,10,NC*%
%TO.N,unconnected-(U1-NC-Pad10)*%
X190500000Y-66040000D03*
%TO.P,U1,11,NC*%
%TO.N,unconnected-(U1-NC-Pad11)*%
X187960000Y-68580000D03*
%TO.P,U1,12,IOREF*%
%TO.N,unconnected-(U1-IOREF-Pad12)*%
X190500000Y-68580000D03*
%TO.P,U1,13,STLINK_TMS/PA13*%
%TO.N,unconnected-(U1-STLINK_TMS{slash}PA13-Pad13)*%
X187960000Y-71120000D03*
%TO.P,U1,14,~{RESET}*%
%TO.N,unconnected-(U1-~{RESET}-Pad14)*%
X190500000Y-71120000D03*
%TO.P,U1,15,STLINK_TCK/PA14*%
%TO.N,unconnected-(U1-STLINK_TCK{slash}PA14-Pad15)*%
X187960000Y-73660000D03*
%TO.P,U1,16,+3V3*%
%TO.N,+3V3*%
X190500000Y-73660000D03*
%TO.P,U1,17,PA15*%
%TO.N,unconnected-(U1-PA15-Pad17)*%
X187960000Y-76200000D03*
%TO.P,U1,18,+5V*%
%TO.N,+5V*%
X190500000Y-76200000D03*
%TO.P,U1,19,GND*%
%TO.N,GND*%
X187960000Y-78740000D03*
%TO.P,U1,20,GND*%
X190500000Y-78740000D03*
%TO.P,U1,21,PB7*%
%TO.N,unconnected-(U1-PB7-Pad21)*%
X187960000Y-81280000D03*
%TO.P,U1,22,GND*%
%TO.N,GND*%
X190500000Y-81280000D03*
%TO.P,U1,23,PC13*%
%TO.N,unconnected-(U1-PC13-Pad23)*%
X187960000Y-83820000D03*
%TO.P,U1,24,VIN*%
%TO.N,unconnected-(U1-VIN-Pad24)*%
X190500000Y-83820000D03*
%TO.P,U1,25,PC14*%
%TO.N,unconnected-(U1-PC14-Pad25)*%
X187960000Y-86360000D03*
%TO.P,U1,26,NC*%
%TO.N,unconnected-(U1-NC-Pad26)*%
X190500000Y-86360000D03*
%TO.P,U1,27,PC15*%
%TO.N,unconnected-(U1-PC15-Pad27)*%
X187960000Y-88900000D03*
%TO.P,U1,28,PA0*%
%TO.N,Net-(U1-PA0)*%
X190500000Y-88900000D03*
%TO.P,U1,29,PH0*%
%TO.N,unconnected-(U1-PH0-Pad29)*%
X187960000Y-91440000D03*
%TO.P,U1,30,PA1*%
%TO.N,Net-(J2-Pin_2)*%
X190500000Y-91440000D03*
%TO.P,U1,31,PH1*%
%TO.N,unconnected-(U1-PH1-Pad31)*%
X187960000Y-93980000D03*
%TO.P,U1,32,PA4*%
%TO.N,unconnected-(U1-PA4-Pad32)*%
X190500000Y-93980000D03*
%TO.P,U1,33,VBAT*%
%TO.N,unconnected-(U1-VBAT-Pad33)*%
X187960000Y-96520000D03*
%TO.P,U1,34,PB0*%
%TO.N,unconnected-(U1-PB0-Pad34)*%
X190500000Y-96520000D03*
%TO.P,U1,35,PC2*%
%TO.N,unconnected-(U1-PC2-Pad35)*%
X187960000Y-99060000D03*
%TO.P,U1,36,PC1*%
%TO.N,unconnected-(U1-PC1-Pad36)*%
X190500000Y-99060000D03*
%TO.P,U1,37,PC3*%
%TO.N,unconnected-(U1-PC3-Pad37)*%
X187960000Y-101600000D03*
%TO.P,U1,38,PC0*%
%TO.N,unconnected-(U1-PC0-Pad38)*%
X190500000Y-101600000D03*
%TO.P,U1,39,PC9*%
%TO.N,unconnected-(U1-PC9-Pad39)*%
X248920000Y-55880000D03*
%TO.P,U1,40,PC8*%
%TO.N,unconnected-(U1-PC8-Pad40)*%
X251460000Y-55880000D03*
%TO.P,U1,41,PB8*%
%TO.N,unconnected-(U1-PB8-Pad41)*%
X248920000Y-58420000D03*
%TO.P,U1,42,PC6*%
%TO.N,unconnected-(U1-PC6-Pad42)*%
X251460000Y-58420000D03*
%TO.P,U1,43,PB9*%
%TO.N,unconnected-(U1-PB9-Pad43)*%
X248920000Y-60960000D03*
%TO.P,U1,44,PC5*%
%TO.N,unconnected-(U1-PC5-Pad44)*%
X251460000Y-60960000D03*
%TO.P,U1,45,AVDD*%
%TO.N,unconnected-(U1-AVDD-Pad45)*%
X248920000Y-63500000D03*
%TO.P,U1,46,U5V*%
%TO.N,unconnected-(U1-U5V-Pad46)*%
X251460000Y-63500000D03*
%TO.P,U1,47,GND*%
%TO.N,GND*%
X248920000Y-66040000D03*
%TO.P,U1,48,NC*%
%TO.N,unconnected-(U1-NC-Pad48)*%
X251460000Y-66040000D03*
%TO.P,U1,49,PA5*%
%TO.N,unconnected-(U1-PA5-Pad49)*%
X248920000Y-68580000D03*
%TO.P,U1,50,PA12*%
%TO.N,unconnected-(U1-PA12-Pad50)*%
X251460000Y-68580000D03*
%TO.P,U1,51,PA6*%
%TO.N,unconnected-(U1-PA6-Pad51)*%
X248920000Y-71120000D03*
%TO.P,U1,52,PA11*%
%TO.N,unconnected-(U1-PA11-Pad52)*%
X251460000Y-71120000D03*
%TO.P,U1,53,PA7*%
%TO.N,unconnected-(U1-PA7-Pad53)*%
X248920000Y-73660000D03*
%TO.P,U1,54,PB12*%
%TO.N,Net-(U1-PB12)*%
X251460000Y-73660000D03*
%TO.P,U1,55,PB6*%
%TO.N,unconnected-(U1-PB6-Pad55)*%
X248920000Y-76200000D03*
%TO.P,U1,56,NC*%
%TO.N,unconnected-(U1-NC-Pad56)*%
X251460000Y-76200000D03*
%TO.P,U1,57,PC7*%
%TO.N,unconnected-(U1-PC7-Pad57)*%
X248920000Y-78740000D03*
%TO.P,U1,58,GND*%
%TO.N,GND*%
X251460000Y-78740000D03*
%TO.P,U1,59,PA9*%
%TO.N,Net-(U1-PA9)*%
X248920000Y-81280000D03*
%TO.P,U1,60,PB2*%
%TO.N,unconnected-(U1-PB2-Pad60)*%
X251460000Y-81280000D03*
%TO.P,U1,61,PA8*%
%TO.N,unconnected-(U1-PA8-Pad61)*%
X248920000Y-83820000D03*
%TO.P,U1,62,PB1*%
%TO.N,unconnected-(U1-PB1-Pad62)*%
X251460000Y-83820000D03*
%TO.P,U1,63,PB10*%
%TO.N,unconnected-(U1-PB10-Pad63)*%
X248920000Y-86360000D03*
%TO.P,U1,64,PB15*%
%TO.N,unconnected-(U1-PB15-Pad64)*%
X251460000Y-86360000D03*
%TO.P,U1,65,PB4*%
%TO.N,unconnected-(U1-PB4-Pad65)*%
X248920000Y-88900000D03*
%TO.P,U1,66,PB14*%
%TO.N,Net-(U1-PB14)*%
X251460000Y-88900000D03*
%TO.P,U1,67,PB5*%
%TO.N,Net-(U1-PB5)*%
X248920000Y-91440000D03*
%TO.P,U1,68,PB13*%
%TO.N,Net-(U1-PB13)*%
X251460000Y-91440000D03*
%TO.P,U1,69,STLINK_SWO/PB3*%
%TO.N,unconnected-(U1-STLINK_SWO{slash}PB3-Pad69)*%
X248920000Y-93980000D03*
%TO.P,U1,70,AGND*%
%TO.N,unconnected-(U1-AGND-Pad70)*%
X251460000Y-93980000D03*
%TO.P,U1,71,PA10*%
%TO.N,Net-(U1-PA10)*%
X248920000Y-96520000D03*
%TO.P,U1,72,PC4*%
%TO.N,unconnected-(U1-PC4-Pad72)*%
X251460000Y-96520000D03*
%TO.P,U1,73,STLINK_UART_TX/PA2*%
%TO.N,unconnected-(U1-STLINK_UART_TX{slash}PA2-Pad73)*%
X248920000Y-99060000D03*
%TO.P,U1,74,NC*%
%TO.N,unconnected-(U1-NC-Pad74)*%
X251460000Y-99060000D03*
%TO.P,U1,75,STLINK_UART_RX/PA3*%
%TO.N,unconnected-(U1-STLINK_UART_RX{slash}PA3-Pad75)*%
X248920000Y-101600000D03*
%TO.P,U1,76,NC*%
%TO.N,unconnected-(U1-NC-Pad76)*%
X251460000Y-101600000D03*
%TO.P,U1,77,GND*%
%TO.N,GND*%
X187960000Y-27940000D03*
%TO.P,U1,78,GND*%
X187960000Y-30480000D03*
%TO.P,U1,79,GND*%
X251460000Y-27940000D03*
%TO.P,U1,80,GND*%
X251460000Y-30480000D03*
%TD*%
D17*
%TO.P,U2,1,RO*%
%TO.N,Net-(U1-PA10)*%
X264160000Y-53340000D03*
%TO.P,U2,2,~{RE}*%
%TO.N,Net-(U1-PB5)*%
X264160000Y-54610000D03*
%TO.P,U2,3,DE*%
X264160000Y-55880000D03*
%TO.P,U2,4,DI*%
%TO.N,Net-(U1-PA9)*%
X264160000Y-57150000D03*
%TO.P,U2,5,GND*%
%TO.N,GND*%
X269110000Y-57150000D03*
%TO.P,U2,6,A*%
%TO.N,/RS485_A*%
X269110000Y-55880000D03*
%TO.P,U2,7,B*%
%TO.N,/RS485_B*%
X269110000Y-54610000D03*
%TO.P,U2,8,VCC*%
%TO.N,+3V3*%
X269110000Y-53340000D03*
%TD*%
D18*
%TO.P,D1,1,BA*%
%TO.N,Net-(D1-BA)*%
X266070000Y-40640000D03*
D19*
%TO.P,D1,2,GA*%
%TO.N,Net-(D1-GA)*%
X267340000Y-40640000D03*
%TO.P,D1,3,K*%
%TO.N,GND*%
X268610000Y-40640000D03*
%TO.P,D1,4,RA*%
%TO.N,Net-(D1-RA)*%
X269880000Y-40640000D03*
%TD*%
D10*
%TO.P,R4,1*%
%TO.N,Net-(U1-PA0)*%
X273135000Y-30480000D03*
%TO.P,R4,2*%
%TO.N,GND*%
X274960000Y-30480000D03*
%TD*%
%TO.P,R3,1*%
%TO.N,Net-(J2-Pin_3)*%
X265515000Y-30480000D03*
%TO.P,R3,2*%
%TO.N,Net-(U1-PA0)*%
X267340000Y-30480000D03*
%TD*%
D20*
%TO.N,GND*%
X278180000Y-71120000D03*
X258400000Y-57900000D03*
X274900000Y-25900000D03*
X269100000Y-59100000D03*
X276500000Y-30500000D03*
X275200000Y-50800000D03*
X271900000Y-43100000D03*
X257000000Y-52300000D03*
%TO.N,Net-(U1-PB12)*%
X255900000Y-38100000D03*
%TO.N,Net-(U1-PB13)*%
X259500000Y-34700000D03*
%TO.N,Net-(U1-PB14)*%
X278700000Y-47100000D03*
%TD*%
D21*
%TO.N,GND*%
X274960000Y-22860000D02*
X274960000Y-25840000D01*
X247769000Y-67191000D02*
X248920000Y-66040000D01*
X268610000Y-41005000D02*
X270705000Y-43100000D01*
X274960000Y-30480000D02*
X276480000Y-30480000D01*
X258365000Y-57865000D02*
X258400000Y-57900000D01*
X270705000Y-43100000D02*
X271900000Y-43100000D01*
X251460000Y-79414240D02*
X250071000Y-80803240D01*
X248443240Y-82431000D02*
X247769000Y-81756760D01*
X268610000Y-40275000D02*
X268610000Y-40640000D01*
X251460000Y-78740000D02*
X251460000Y-79414240D01*
X248920000Y-66040000D02*
X250309000Y-64651000D01*
X276480000Y-30480000D02*
X276500000Y-30500000D01*
X274320000Y-71120000D02*
X278180000Y-71120000D01*
X250309000Y-64651000D02*
X250309000Y-57943240D01*
X252222880Y-57077120D02*
X257000000Y-52300000D01*
X251175120Y-57077120D02*
X252222880Y-57077120D01*
X258380000Y-55880000D02*
X258500000Y-56000000D01*
X250071000Y-81756760D02*
X249396760Y-82431000D01*
X268610000Y-40640000D02*
X268610000Y-41005000D01*
X250071000Y-80803240D02*
X250071000Y-81756760D01*
X269110000Y-57150000D02*
X269110000Y-59090000D01*
X250309000Y-57943240D02*
X251175120Y-57077120D01*
X269110000Y-59090000D02*
X269100000Y-59100000D01*
X258365000Y-55880000D02*
X258365000Y-57865000D01*
X247769000Y-81756760D02*
X247769000Y-67191000D01*
X274960000Y-25840000D02*
X274900000Y-25900000D01*
X258365000Y-55880000D02*
X258380000Y-55880000D01*
X273680000Y-50800000D02*
X275200000Y-50800000D01*
X249396760Y-82431000D02*
X248443240Y-82431000D01*
%TO.N,+3V3*%
X279301000Y-47348943D02*
X279301000Y-25573240D01*
X269110000Y-53340000D02*
X267900000Y-52130000D01*
X271780000Y-50800000D02*
X269240000Y-53340000D01*
X267900000Y-52130000D02*
X267900000Y-50500000D01*
X269240000Y-53340000D02*
X269110000Y-53340000D01*
X279301000Y-25573240D02*
X275035760Y-21308000D01*
X267900000Y-50500000D02*
X270699000Y-47701000D01*
X278948943Y-47701000D02*
X279301000Y-47348943D01*
X242852000Y-21308000D02*
X190500000Y-73660000D01*
X270699000Y-47701000D02*
X278948943Y-47701000D01*
X275035760Y-21308000D02*
X242852000Y-21308000D01*
%TO.N,Net-(D1-GA)*%
X268176000Y-39439000D02*
X267340000Y-40275000D01*
X275058500Y-39826500D02*
X275058500Y-34874840D01*
X270237660Y-39439000D02*
X268176000Y-39439000D01*
X273431500Y-36245160D02*
X270237660Y-39439000D01*
X267340000Y-40275000D02*
X267340000Y-40640000D01*
X273431500Y-34874840D02*
X273431500Y-36245160D01*
X275058500Y-34874840D02*
X274742660Y-34559000D01*
X274742660Y-34559000D02*
X273747340Y-34559000D01*
X274245000Y-40640000D02*
X275058500Y-39826500D01*
X273747340Y-34559000D02*
X273431500Y-34874840D01*
%TO.N,Net-(D1-RA)*%
X274245000Y-36275000D02*
X269880000Y-40640000D01*
X274245000Y-35560000D02*
X274245000Y-36275000D01*
%TO.N,Net-(D1-BA)*%
X273225000Y-44700000D02*
X269765000Y-44700000D01*
X269765000Y-44700000D02*
X266070000Y-41005000D01*
X266070000Y-41005000D02*
X266070000Y-40640000D01*
X274245000Y-45720000D02*
X273225000Y-44700000D01*
%TO.N,/RS485_B*%
X273910000Y-54610000D02*
X269110000Y-54610000D01*
X273080000Y-60960000D02*
X274418500Y-59621500D01*
X273080000Y-60960000D02*
X273080000Y-67280000D01*
X274418500Y-59621500D02*
X274418500Y-55118500D01*
X274418500Y-55118500D02*
X273910000Y-54610000D01*
X273080000Y-67280000D02*
X269240000Y-71120000D01*
%TO.N,/RS485_A*%
X264160000Y-71120000D02*
X264160000Y-70640000D01*
X270979000Y-59930000D02*
X270979000Y-56681000D01*
X270979000Y-56681000D02*
X271780000Y-55880000D01*
X264200000Y-66709000D02*
X270979000Y-59930000D01*
X264160000Y-70640000D02*
X264200000Y-70600000D01*
X271780000Y-55880000D02*
X270600000Y-55880000D01*
X270600000Y-55880000D02*
X269110000Y-55880000D01*
X264200000Y-70600000D02*
X264200000Y-66709000D01*
X269110000Y-55880000D02*
X268763032Y-55880000D01*
%TO.N,Net-(J2-Pin_2)*%
X201300000Y-91440000D02*
X190500000Y-91440000D01*
X269880000Y-22860000D02*
X201300000Y-91440000D01*
%TO.N,Net-(J2-Pin_3)*%
X265515000Y-29765000D02*
X265515000Y-30480000D01*
X272420000Y-22860000D02*
X265515000Y-29765000D01*
%TO.N,+5V*%
X267340000Y-22860000D02*
X200149000Y-90051000D01*
X189349000Y-77351000D02*
X190500000Y-76200000D01*
X200149000Y-90051000D02*
X190023240Y-90051000D01*
X190023240Y-90051000D02*
X189349000Y-89376760D01*
X189349000Y-89376760D02*
X189349000Y-77351000D01*
%TO.N,Net-(JP1-A)*%
X273605000Y-55880000D02*
X271780000Y-57705000D01*
X271780000Y-57705000D02*
X271780000Y-60960000D01*
%TO.N,Net-(U1-PB5)*%
X257541000Y-54879000D02*
X261889000Y-54879000D01*
X252611000Y-66159000D02*
X252611000Y-81756760D01*
X256540000Y-55880000D02*
X257541000Y-54879000D01*
X264160000Y-55880000D02*
X262890000Y-55880000D01*
X261889000Y-54879000D02*
X262890000Y-55880000D01*
X264160000Y-54610000D02*
X262885000Y-55885000D01*
X252611000Y-81756760D02*
X251698760Y-82669000D01*
X262890000Y-55880000D02*
X262885000Y-55885000D01*
X250983240Y-82669000D02*
X250071000Y-83581240D01*
X250071000Y-83581240D02*
X250071000Y-90289000D01*
X250071000Y-90289000D02*
X248920000Y-91440000D01*
X251698760Y-82669000D02*
X250983240Y-82669000D01*
X262885000Y-55885000D02*
X252611000Y-66159000D01*
%TO.N,Net-(U1-PA0)*%
X194667760Y-88900000D02*
X190500000Y-88900000D01*
X273571000Y-22383240D02*
X272896760Y-21709000D01*
X273135000Y-30480000D02*
X272880000Y-30480000D01*
X267340000Y-30480000D02*
X270110000Y-27710000D01*
X273571000Y-24249000D02*
X273571000Y-22383240D01*
X261858760Y-21709000D02*
X194667760Y-88900000D01*
X270110000Y-27710000D02*
X273571000Y-24249000D01*
X272880000Y-30480000D02*
X270110000Y-27710000D01*
X272896760Y-21709000D02*
X261858760Y-21709000D01*
%TO.N,Net-(U1-PB12)*%
X258440000Y-35560000D02*
X255900000Y-38100000D01*
X272420000Y-35560000D02*
X258440000Y-35560000D01*
%TO.N,Net-(U1-PB13)*%
X273641000Y-41641000D02*
X274742660Y-41641000D01*
X272420000Y-40640000D02*
X272420000Y-40420000D01*
X272420000Y-40420000D02*
X272400000Y-40400000D01*
X274742660Y-41641000D02*
X276000000Y-40383660D01*
X272400000Y-40400000D02*
X273641000Y-41641000D01*
X276000000Y-33200000D02*
X261000000Y-33200000D01*
X261000000Y-33200000D02*
X259500000Y-34700000D01*
X276000000Y-40383660D02*
X276000000Y-33200000D01*
%TO.N,Net-(U1-PB14)*%
X273800000Y-47100000D02*
X278700000Y-47100000D01*
X272420000Y-45720000D02*
X273800000Y-47100000D01*
%TO.N,Net-(U1-PA9)*%
X265175968Y-54009000D02*
X256912340Y-54009000D01*
X250071000Y-80129000D02*
X248920000Y-81280000D01*
X265134999Y-57150000D02*
X265436000Y-56848999D01*
X265436000Y-56848999D02*
X265436000Y-54269032D01*
X250071000Y-65801240D02*
X250071000Y-80129000D01*
X265436000Y-54269032D02*
X265175968Y-54009000D01*
X251936760Y-64889000D02*
X250983240Y-64889000D01*
X256912340Y-54009000D02*
X252611000Y-58310340D01*
X264160000Y-57150000D02*
X265134999Y-57150000D01*
X252611000Y-64214760D02*
X251936760Y-64889000D01*
X252611000Y-58310340D02*
X252611000Y-64214760D01*
X250983240Y-64889000D02*
X250071000Y-65801240D01*
%TO.N,Net-(U1-PA10)*%
X250071000Y-95369000D02*
X248920000Y-96520000D01*
X265837000Y-64504900D02*
X253012000Y-77329900D01*
X265134999Y-53340000D02*
X265837000Y-54042001D01*
X250071000Y-91201240D02*
X250071000Y-95369000D01*
X264160000Y-53340000D02*
X265134999Y-53340000D01*
X251698760Y-90289000D02*
X250983240Y-90289000D01*
X250983240Y-90289000D02*
X250071000Y-91201240D01*
X265837000Y-54042001D02*
X265837000Y-64504900D01*
X253012000Y-88975760D02*
X251698760Y-90289000D01*
X253012000Y-77329900D02*
X253012000Y-88975760D01*
%TD*%
M02*
