%TF.GenerationSoftware,KiCad,Pcbnew,9.0.1*%
%TF.CreationDate,2026-09-14T17:13:18+09:00*%
%TF.ProjectId,parking_sensor_node,7061726b-696e-4675-9f73-656e736f725f,rev?*%
%TF.SameCoordinates,Original*%
%TF.FileFunction,Soldermask,Bot*%
%TF.FilePolarity,Negative*%
%FSLAX46Y46*%
G04 Gerber Fmt 4.6, Leading zero omitted, Abs format (unit mm)*
G04 Created by KiCad (PCBNEW 9.0.1) date 2026-09-14 17:13:18*
%MOMM*%
%LPD*%
G01*
G04 APERTURE LIST*
G04 Aperture macros list*
%AMRoundRect*
0 Rectangle with rounded corners*
0 $1 Rounding radius*
0 $2 $3 $4 $5 $6 $7 $8 $9 X,Y pos of 4 corners*
0 Add a 4 corners polygon primitive as box body*
4,1,4,$2,$3,$4,$5,$6,$7,$8,$9,$2,$3,0*
0 Add four circle primitives for the rounded corners*
1,1,$1+$1,$2,$3*
1,1,$1+$1,$4,$5*
1,1,$1+$1,$6,$7*
1,1,$1+$1,$8,$9*
0 Add four rect primitives between the rounded corners*
20,1,$1+$1,$2,$3,$4,$5,0*
20,1,$1+$1,$4,$5,$6,$7,0*
20,1,$1+$1,$6,$7,$8,$9,0*
20,1,$1+$1,$8,$9,$2,$3,0*%
G04 Aperture macros list end*
%ADD10R,1.700000X1.700000*%
%ADD11C,1.700000*%
%ADD12RoundRect,0.250000X-1.050000X-1.050000X1.050000X-1.050000X1.050000X1.050000X-1.050000X1.050000X0*%
%ADD13C,2.600000*%
%ADD14R,1.070000X1.800000*%
%ADD15O,1.070000X1.800000*%
G04 APERTURE END LIST*
D10*
%TO.C,J2*%
X267340000Y-22860000D03*
D11*
X269880000Y-22860000D03*
X272420000Y-22860000D03*
X274960000Y-22860000D03*
%TD*%
D12*
%TO.C,J1*%
X264160000Y-71120000D03*
D13*
X269240000Y-71120000D03*
X274320000Y-71120000D03*
%TD*%
D11*
%TO.C,U1*%
X187960000Y-55880000D03*
X190500000Y-55880000D03*
X187960000Y-58420000D03*
X190500000Y-58420000D03*
X187960000Y-60960000D03*
X190500000Y-60960000D03*
X187960000Y-63500000D03*
X190500000Y-63500000D03*
X187960000Y-66040000D03*
X190500000Y-66040000D03*
X187960000Y-68580000D03*
X190500000Y-68580000D03*
X187960000Y-71120000D03*
X190500000Y-71120000D03*
X187960000Y-73660000D03*
X190500000Y-73660000D03*
X187960000Y-76200000D03*
X190500000Y-76200000D03*
X187960000Y-78740000D03*
X190500000Y-78740000D03*
X187960000Y-81280000D03*
X190500000Y-81280000D03*
X187960000Y-83820000D03*
X190500000Y-83820000D03*
X187960000Y-86360000D03*
X190500000Y-86360000D03*
X187960000Y-88900000D03*
X190500000Y-88900000D03*
X187960000Y-91440000D03*
X190500000Y-91440000D03*
X187960000Y-93980000D03*
X190500000Y-93980000D03*
X187960000Y-96520000D03*
X190500000Y-96520000D03*
X187960000Y-99060000D03*
X190500000Y-99060000D03*
X187960000Y-101600000D03*
X190500000Y-101600000D03*
X248920000Y-55880000D03*
X251460000Y-55880000D03*
X248920000Y-58420000D03*
X251460000Y-58420000D03*
X248920000Y-60960000D03*
X251460000Y-60960000D03*
X248920000Y-63500000D03*
X251460000Y-63500000D03*
X248920000Y-66040000D03*
X251460000Y-66040000D03*
X248920000Y-68580000D03*
X251460000Y-68580000D03*
X248920000Y-71120000D03*
X251460000Y-71120000D03*
X248920000Y-73660000D03*
X251460000Y-73660000D03*
X248920000Y-76200000D03*
X251460000Y-76200000D03*
X248920000Y-78740000D03*
X251460000Y-78740000D03*
X248920000Y-81280000D03*
X251460000Y-81280000D03*
X248920000Y-83820000D03*
X251460000Y-83820000D03*
X248920000Y-86360000D03*
X251460000Y-86360000D03*
X248920000Y-88900000D03*
X251460000Y-88900000D03*
X248920000Y-91440000D03*
X251460000Y-91440000D03*
X248920000Y-93980000D03*
X251460000Y-93980000D03*
X248920000Y-96520000D03*
X251460000Y-96520000D03*
X248920000Y-99060000D03*
X251460000Y-99060000D03*
X248920000Y-101600000D03*
X251460000Y-101600000D03*
X187960000Y-27940000D03*
X187960000Y-30480000D03*
X251460000Y-27940000D03*
X251460000Y-30480000D03*
%TD*%
D14*
%TO.C,D1*%
X266070000Y-40640000D03*
D15*
X267340000Y-40640000D03*
X268610000Y-40640000D03*
X269880000Y-40640000D03*
%TD*%
M02*
