%TF.GenerationSoftware,KiCad,Pcbnew,9.0.1*%
%TF.CreationDate,2026-09-14T17:13:18+09:00*%
%TF.ProjectId,parking_sensor_node,7061726b-696e-4675-9f73-656e736f725f,rev?*%
%TF.SameCoordinates,Original*%
%TF.FileFunction,Copper,L2,Bot*%
%TF.FilePolarity,Positive*%
%FSLAX46Y46*%
G04 Gerber Fmt 4.6, Leading zero omitted, Abs format (unit mm)*
G04 Created by KiCad (PCBNEW 9.0.1) date 2026-09-14 17:13:18*
%MOMM*%
%LPD*%
G01*
G04 APERTURE LIST*
G04 Aperture macros list*
%AMRoundRect*
0 Rectangle with rounded corners*
0 $1 Rounding radius*
0 $2 $3 $4 $5 $6 $7 $8 $9 X,Y pos of 4 corners*
0 Add a 4 corners polygon primitive as box body*
4,1,4,$2,$3,$4,$5,$6,$7,$8,$9,$2,$3,0*
0 Add four circle primitives for the rounded corners*
1,1,$1+$1,$2,$3*
1,1,$1+$1,$4,$5*
1,1,$1+$1,$6,$7*
1,1,$1+$1,$8,$9*
0 Add four rect primitives between the rounded corners*
20,1,$1+$1,$2,$3,$4,$5,0*
20,1,$1+$1,$4,$5,$6,$7,0*
20,1,$1+$1,$6,$7,$8,$9,0*
20,1,$1+$1,$8,$9,$2,$3,0*%
G04 Aperture macros list end*
%TA.AperFunction,ComponentPad*%
%ADD10R,1.700000X1.700000*%
%TD*%
%TA.AperFunction,ComponentPad*%
%ADD11C,1.700000*%
%TD*%
%TA.AperFunction,ComponentPad*%
%ADD12RoundRect,0.250000X-1.050000X-1.050000X1.050000X-1.050000X1.050000X1.050000X-1.050000X1.050000X0*%
%TD*%
%TA.AperFunction,ComponentPad*%
%ADD13C,2.600000*%
%TD*%
%TA.AperFunction,ComponentPad*%
%ADD14R,1.070000X1.800000*%
%TD*%
%TA.AperFunction,ComponentPad*%
%ADD15O,1.070000X1.800000*%
%TD*%
%TA.AperFunction,ViaPad*%
%ADD16C,0.600000*%
%TD*%
%TA.AperFunction,Conductor*%
%ADD17C,0.200000*%
%TD*%
G04 APERTURE END LIST*
D10*
%TO.P,J2,1,Pin_1*%
%TO.N,+5V*%
X267340000Y-22860000D03*
D11*
%TO.P,J2,2,Pin_2*%
%TO.N,Net-(J2-Pin_2)*%
X269880000Y-22860000D03*
%TO.P,J2,3,Pin_3*%
%TO.N,Net-(J2-Pin_3)*%
X272420000Y-22860000D03*
%TO.P,J2,4,Pin_4*%
%TO.N,GND*%
X274960000Y-22860000D03*
%TD*%
D12*
%TO.P,J1,1,Pin_1*%
%TO.N,/RS485_A*%
X264160000Y-71120000D03*
D13*
%TO.P,J1,2,Pin_2*%
%TO.N,/RS485_B*%
X269240000Y-71120000D03*
%TO.P,J1,3,Pin_3*%
%TO.N,GND*%
X274320000Y-71120000D03*
%TD*%
D11*
%TO.P,U1,1,PC10*%
%TO.N,unconnected-(U1-PC10-Pad1)*%
X187960000Y-55880000D03*
%TO.P,U1,2,PC11*%
%TO.N,unconnected-(U1-PC11-Pad2)*%
X190500000Y-55880000D03*
%TO.P,U1,3,PC12*%
%TO.N,unconnected-(U1-PC12-Pad3)*%
X187960000Y-58420000D03*
%TO.P,U1,4,PD2*%
%TO.N,unconnected-(U1-PD2-Pad4)*%
X190500000Y-58420000D03*
%TO.P,U1,5,VDD*%
%TO.N,unconnected-(U1-VDD-Pad5)*%
X187960000Y-60960000D03*
%TO.P,U1,6,E5V*%
%TO.N,unconnected-(U1-E5V-Pad6)*%
X190500000Y-60960000D03*
%TO.P,U1,7,~{BOOT0}*%
%TO.N,unconnected-(U1-~{BOOT0}-Pad7)*%
X187960000Y-63500000D03*
%TO.P,U1,8,GND*%
%TO.N,GND*%
X190500000Y-63500000D03*
%TO.P,U1,9,NC*%
%TO.N,unconnected-(U1-NC-Pad9)*%
X187960000Y-66040000D03*
%TO.P,U1,10,NC*%
%TO.N,unconnected-(U1-NC-Pad10)*%
X190500000Y-66040000D03*
%TO.P,U1,11,NC*%
%TO.N,unconnected-(U1-NC-Pad11)*%
X187960000Y-68580000D03*
%TO.P,U1,12,IOREF*%
%TO.N,unconnected-(U1-IOREF-Pad12)*%
X190500000Y-68580000D03*
%TO.P,U1,13,STLINK_TMS/PA13*%
%TO.N,unconnected-(U1-STLINK_TMS{slash}PA13-Pad13)*%
X187960000Y-71120000D03*
%TO.P,U1,14,~{RESET}*%
%TO.N,unconnected-(U1-~{RESET}-Pad14)*%
X190500000Y-71120000D03*
%TO.P,U1,15,STLINK_TCK/PA14*%
%TO.N,unconnected-(U1-STLINK_TCK{slash}PA14-Pad15)*%
X187960000Y-73660000D03*
%TO.P,U1,16,+3V3*%
%TO.N,+3V3*%
X190500000Y-73660000D03*
%TO.P,U1,17,PA15*%
%TO.N,unconnected-(U1-PA15-Pad17)*%
X187960000Y-76200000D03*
%TO.P,U1,18,+5V*%
%TO.N,+5V*%
X190500000Y-76200000D03*
%TO.P,U1,19,GND*%
%TO.N,GND*%
X187960000Y-78740000D03*
%TO.P,U1,20,GND*%
X190500000Y-78740000D03*
%TO.P,U1,21,PB7*%
%TO.N,unconnected-(U1-PB7-Pad21)*%
X187960000Y-81280000D03*
%TO.P,U1,22,GND*%
%TO.N,GND*%
X190500000Y-81280000D03*
%TO.P,U1,23,PC13*%
%TO.N,unconnected-(U1-PC13-Pad23)*%
X187960000Y-83820000D03*
%TO.P,U1,24,VIN*%
%TO.N,unconnected-(U1-VIN-Pad24)*%
X190500000Y-83820000D03*
%TO.P,U1,25,PC14*%
%TO.N,unconnected-(U1-PC14-Pad25)*%
X187960000Y-86360000D03*
%TO.P,U1,26,NC*%
%TO.N,unconnected-(U1-NC-Pad26)*%
X190500000Y-86360000D03*
%TO.P,U1,27,PC15*%
%TO.N,unconnected-(U1-PC15-Pad27)*%
X187960000Y-88900000D03*
%TO.P,U1,28,PA0*%
%TO.N,Net-(U1-PA0)*%
X190500000Y-88900000D03*
%TO.P,U1,29,PH0*%
%TO.N,unconnected-(U1-PH0-Pad29)*%
X187960000Y-91440000D03*
%TO.P,U1,30,PA1*%
%TO.N,Net-(J2-Pin_2)*%
X190500000Y-91440000D03*
%TO.P,U1,31,PH1*%
%TO.N,unconnected-(U1-PH1-Pad31)*%
X187960000Y-93980000D03*
%TO.P,U1,32,PA4*%
%TO.N,unconnected-(U1-PA4-Pad32)*%
X190500000Y-93980000D03*
%TO.P,U1,33,VBAT*%
%TO.N,unconnected-(U1-VBAT-Pad33)*%
X187960000Y-96520000D03*
%TO.P,U1,34,PB0*%
%TO.N,unconnected-(U1-PB0-Pad34)*%
X190500000Y-96520000D03*
%TO.P,U1,35,PC2*%
%TO.N,unconnected-(U1-PC2-Pad35)*%
X187960000Y-99060000D03*
%TO.P,U1,36,PC1*%
%TO.N,unconnected-(U1-PC1-Pad36)*%
X190500000Y-99060000D03*
%TO.P,U1,37,PC3*%
%TO.N,unconnected-(U1-PC3-Pad37)*%
X187960000Y-101600000D03*
%TO.P,U1,38,PC0*%
%TO.N,unconnected-(U1-PC0-Pad38)*%
X190500000Y-101600000D03*
%TO.P,U1,39,PC9*%
%TO.N,unconnected-(U1-PC9-Pad39)*%
X248920000Y-55880000D03*
%TO.P,U1,40,PC8*%
%TO.N,unconnected-(U1-PC8-Pad40)*%
X251460000Y-55880000D03*
%TO.P,U1,41,PB8*%
%TO.N,unconnected-(U1-PB8-Pad41)*%
X248920000Y-58420000D03*
%TO.P,U1,42,PC6*%
%TO.N,unconnected-(U1-PC6-Pad42)*%
X251460000Y-58420000D03*
%TO.P,U1,43,PB9*%
%TO.N,unconnected-(U1-PB9-Pad43)*%
X248920000Y-60960000D03*
%TO.P,U1,44,PC5*%
%TO.N,unconnected-(U1-PC5-Pad44)*%
X251460000Y-60960000D03*
%TO.P,U1,45,AVDD*%
%TO.N,unconnected-(U1-AVDD-Pad45)*%
X248920000Y-63500000D03*
%TO.P,U1,46,U5V*%
%TO.N,unconnected-(U1-U5V-Pad46)*%
X251460000Y-63500000D03*
%TO.P,U1,47,GND*%
%TO.N,GND*%
X248920000Y-66040000D03*
%TO.P,U1,48,NC*%
%TO.N,unconnected-(U1-NC-Pad48)*%
X251460000Y-66040000D03*
%TO.P,U1,49,PA5*%
%TO.N,unconnected-(U1-PA5-Pad49)*%
X248920000Y-68580000D03*
%TO.P,U1,50,PA12*%
%TO.N,unconnected-(U1-PA12-Pad50)*%
X251460000Y-68580000D03*
%TO.P,U1,51,PA6*%
%TO.N,unconnected-(U1-PA6-Pad51)*%
X248920000Y-71120000D03*
%TO.P,U1,52,PA11*%
%TO.N,unconnected-(U1-PA11-Pad52)*%
X251460000Y-71120000D03*
%TO.P,U1,53,PA7*%
%TO.N,unconnected-(U1-PA7-Pad53)*%
X248920000Y-73660000D03*
%TO.P,U1,54,PB12*%
%TO.N,Net-(U1-PB12)*%
X251460000Y-73660000D03*
%TO.P,U1,55,PB6*%
%TO.N,unconnected-(U1-PB6-Pad55)*%
X248920000Y-76200000D03*
%TO.P,U1,56,NC*%
%TO.N,unconnected-(U1-NC-Pad56)*%
X251460000Y-76200000D03*
%TO.P,U1,57,PC7*%
%TO.N,unconnected-(U1-PC7-Pad57)*%
X248920000Y-78740000D03*
%TO.P,U1,58,GND*%
%TO.N,GND*%
X251460000Y-78740000D03*
%TO.P,U1,59,PA9*%
%TO.N,Net-(U1-PA9)*%
X248920000Y-81280000D03*
%TO.P,U1,60,PB2*%
%TO.N,unconnected-(U1-PB2-Pad60)*%
X251460000Y-81280000D03*
%TO.P,U1,61,PA8*%
%TO.N,unconnected-(U1-PA8-Pad61)*%
X248920000Y-83820000D03*
%TO.P,U1,62,PB1*%
%TO.N,unconnected-(U1-PB1-Pad62)*%
X251460000Y-83820000D03*
%TO.P,U1,63,PB10*%
%TO.N,unconnected-(U1-PB10-Pad63)*%
X248920000Y-86360000D03*
%TO.P,U1,64,PB15*%
%TO.N,unconnected-(U1-PB15-Pad64)*%
X251460000Y-86360000D03*
%TO.P,U1,65,PB4*%
%TO.N,unconnected-(U1-PB4-Pad65)*%
X248920000Y-88900000D03*
%TO.P,U1,66,PB14*%
%TO.N,Net-(U1-PB14)*%
X251460000Y-88900000D03*
%TO.P,U1,67,PB5*%
%TO.N,Net-(U1-PB5)*%
X248920000Y-91440000D03*
%TO.P,U1,68,PB13*%
%TO.N,Net-(U1-PB13)*%
X251460000Y-91440000D03*
%TO.P,U1,69,STLINK_SWO/PB3*%
%TO.N,unconnected-(U1-STLINK_SWO{slash}PB3-Pad69)*%
X248920000Y-93980000D03*
%TO.P,U1,70,AGND*%
%TO.N,unconnected-(U1-AGND-Pad70)*%
X251460000Y-93980000D03*
%TO.P,U1,71,PA10*%
%TO.N,Net-(U1-PA10)*%
X248920000Y-96520000D03*
%TO.P,U1,72,PC4*%
%TO.N,unconnected-(U1-PC4-Pad72)*%
X251460000Y-96520000D03*
%TO.P,U1,73,STLINK_UART_TX/PA2*%
%TO.N,unconnected-(U1-STLINK_UART_TX{slash}PA2-Pad73)*%
X248920000Y-99060000D03*
%TO.P,U1,74,NC*%
%TO.N,unconnected-(U1-NC-Pad74)*%
X251460000Y-99060000D03*
%TO.P,U1,75,STLINK_UART_RX/PA3*%
%TO.N,unconnected-(U1-STLINK_UART_RX{slash}PA3-Pad75)*%
X248920000Y-101600000D03*
%TO.P,U1,76,NC*%
%TO.N,unconnected-(U1-NC-Pad76)*%
X251460000Y-101600000D03*
%TO.P,U1,77,GND*%
%TO.N,GND*%
X187960000Y-27940000D03*
%TO.P,U1,78,GND*%
X187960000Y-30480000D03*
%TO.P,U1,79,GND*%
X251460000Y-27940000D03*
%TO.P,U1,80,GND*%
X251460000Y-30480000D03*
%TD*%
D14*
%TO.P,D1,1,BA*%
%TO.N,Net-(D1-BA)*%
X266070000Y-40640000D03*
D15*
%TO.P,D1,2,GA*%
%TO.N,Net-(D1-GA)*%
X267340000Y-40640000D03*
%TO.P,D1,3,K*%
%TO.N,GND*%
X268610000Y-40640000D03*
%TO.P,D1,4,RA*%
%TO.N,Net-(D1-RA)*%
X269880000Y-40640000D03*
%TD*%
D16*
%TO.N,GND*%
X278180000Y-71120000D03*
X258400000Y-57900000D03*
X274900000Y-25900000D03*
X269100000Y-59100000D03*
X276500000Y-30500000D03*
X275200000Y-50800000D03*
X271900000Y-43100000D03*
X257000000Y-52300000D03*
%TO.N,Net-(U1-PB12)*%
X255900000Y-38100000D03*
%TO.N,Net-(U1-PB13)*%
X259500000Y-34700000D03*
%TO.N,Net-(U1-PB14)*%
X278700000Y-47100000D03*
%TD*%
D17*
%TO.N,Net-(U1-PB12)*%
X250309000Y-72509000D02*
X251460000Y-73660000D01*
X255900000Y-38100000D02*
X250309000Y-43691000D01*
X250309000Y-43691000D02*
X250309000Y-72509000D01*
%TO.N,Net-(U1-PB13)*%
X259500000Y-34700000D02*
X259500000Y-35500000D01*
X255600000Y-87300000D02*
X251460000Y-91440000D01*
X255600000Y-39400000D02*
X255600000Y-87300000D01*
X259500000Y-35500000D02*
X255600000Y-39400000D01*
%TO.N,Net-(U1-PB14)*%
X250309000Y-90051000D02*
X251460000Y-88900000D01*
X250983240Y-92591000D02*
X250309000Y-91916760D01*
X278781000Y-89519000D02*
X275709000Y-92591000D01*
X250309000Y-91916760D02*
X250309000Y-90051000D01*
X275709000Y-92591000D02*
X250983240Y-92591000D01*
X278781000Y-47181000D02*
X278781000Y-89519000D01*
X278700000Y-47100000D02*
X278781000Y-47181000D01*
%TD*%
%TA.AperFunction,Conductor*%
%TO.N,GND*%
G36*
X190034075Y-81472993D02*
G01*
X190099901Y-81587007D01*
X190192993Y-81680099D01*
X190307007Y-81745925D01*
X190370590Y-81762962D01*
X189738282Y-82395269D01*
X189738282Y-82395270D01*
X189792452Y-82434626D01*
X189792451Y-82434626D01*
X189801495Y-82439234D01*
X189852292Y-82487208D01*
X189869087Y-82555029D01*
X189846550Y-82621164D01*
X189801499Y-82660202D01*
X189792182Y-82664949D01*
X189620213Y-82789890D01*
X189469890Y-82940213D01*
X189344949Y-83112182D01*
X189340484Y-83120946D01*
X189292509Y-83171742D01*
X189224688Y-83188536D01*
X189158553Y-83165998D01*
X189119516Y-83120946D01*
X189115050Y-83112182D01*
X188990109Y-82940213D01*
X188839786Y-82789890D01*
X188667820Y-82664951D01*
X188667115Y-82664591D01*
X188659054Y-82660485D01*
X188608259Y-82612512D01*
X188591463Y-82544692D01*
X188613999Y-82478556D01*
X188659054Y-82439515D01*
X188667816Y-82435051D01*
X188722572Y-82395269D01*
X188839786Y-82310109D01*
X188839788Y-82310106D01*
X188839792Y-82310104D01*
X188990104Y-82159792D01*
X188990106Y-82159788D01*
X188990109Y-82159786D01*
X189075890Y-82041717D01*
X189115051Y-81987816D01*
X189119793Y-81978508D01*
X189167763Y-81927711D01*
X189235583Y-81910911D01*
X189301719Y-81933445D01*
X189340763Y-81978500D01*
X189345373Y-81987547D01*
X189384728Y-82041716D01*
X190017037Y-81409408D01*
X190034075Y-81472993D01*
G37*
%TD.AperFunction*%
%TA.AperFunction,Conductor*%
G36*
X190034075Y-78932993D02*
G01*
X190099901Y-79047007D01*
X190192993Y-79140099D01*
X190307007Y-79205925D01*
X190370590Y-79222962D01*
X189738282Y-79855269D01*
X189738282Y-79855270D01*
X189792452Y-79894626D01*
X189802048Y-79899516D01*
X189852844Y-79947491D01*
X189869638Y-80015312D01*
X189847100Y-80081447D01*
X189802051Y-80120483D01*
X189792440Y-80125380D01*
X189738282Y-80164727D01*
X189738282Y-80164728D01*
X190370591Y-80797037D01*
X190307007Y-80814075D01*
X190192993Y-80879901D01*
X190099901Y-80972993D01*
X190034075Y-81087007D01*
X190017037Y-81150590D01*
X189384728Y-80518282D01*
X189384727Y-80518282D01*
X189345380Y-80572440D01*
X189345376Y-80572446D01*
X189340760Y-80581505D01*
X189292781Y-80632297D01*
X189224959Y-80649087D01*
X189158826Y-80626543D01*
X189119794Y-80581493D01*
X189115051Y-80572184D01*
X189115049Y-80572181D01*
X189115048Y-80572179D01*
X188990109Y-80400213D01*
X188839786Y-80249890D01*
X188667817Y-80124949D01*
X188658504Y-80120204D01*
X188607707Y-80072230D01*
X188590912Y-80004409D01*
X188611754Y-79940742D01*
X188690119Y-79823672D01*
X188089408Y-79222962D01*
X188152993Y-79205925D01*
X188267007Y-79140099D01*
X188360099Y-79047007D01*
X188425925Y-78932993D01*
X188442962Y-78869408D01*
X189075270Y-79501717D01*
X189075270Y-79501716D01*
X189114622Y-79447554D01*
X189119514Y-79437954D01*
X189167488Y-79387157D01*
X189235308Y-79370361D01*
X189301444Y-79392897D01*
X189340486Y-79437954D01*
X189345375Y-79447550D01*
X189384728Y-79501716D01*
X190017037Y-78869408D01*
X190034075Y-78932993D01*
G37*
%TD.AperFunction*%
%TA.AperFunction,Conductor*%
G36*
X189301444Y-76853999D02*
G01*
X189340486Y-76899056D01*
X189344951Y-76907820D01*
X189469890Y-77079786D01*
X189620213Y-77230109D01*
X189792179Y-77355048D01*
X189792181Y-77355049D01*
X189792184Y-77355051D01*
X189801493Y-77359794D01*
X189852290Y-77407766D01*
X189869087Y-77475587D01*
X189846552Y-77541722D01*
X189801505Y-77580760D01*
X189792446Y-77585376D01*
X189792440Y-77585380D01*
X189738282Y-77624727D01*
X189738282Y-77624728D01*
X190370591Y-78257037D01*
X190307007Y-78274075D01*
X190192993Y-78339901D01*
X190099901Y-78432993D01*
X190034075Y-78547007D01*
X190017037Y-78610590D01*
X189384728Y-77978282D01*
X189384727Y-77978282D01*
X189345380Y-78032440D01*
X189340483Y-78042051D01*
X189292506Y-78092845D01*
X189224684Y-78109638D01*
X189158550Y-78087098D01*
X189119516Y-78042048D01*
X189114626Y-78032452D01*
X189075270Y-77978282D01*
X189075269Y-77978282D01*
X188442962Y-78610590D01*
X188425925Y-78547007D01*
X188360099Y-78432993D01*
X188267007Y-78339901D01*
X188152993Y-78274075D01*
X188089409Y-78257037D01*
X188721716Y-77624728D01*
X188667547Y-77585373D01*
X188667547Y-77585372D01*
X188658500Y-77580763D01*
X188607706Y-77532788D01*
X188590912Y-77464966D01*
X188613451Y-77398832D01*
X188658508Y-77359793D01*
X188667816Y-77355051D01*
X188747007Y-77297515D01*
X188839786Y-77230109D01*
X188839788Y-77230106D01*
X188839792Y-77230104D01*
X188990104Y-77079792D01*
X188990106Y-77079788D01*
X188990109Y-77079786D01*
X189115048Y-76907820D01*
X189115047Y-76907820D01*
X189115051Y-76907816D01*
X189119514Y-76899054D01*
X189167488Y-76848259D01*
X189235308Y-76831463D01*
X189301444Y-76853999D01*
G37*
%TD.AperFunction*%
%TA.AperFunction,Conductor*%
G36*
X190034075Y-63692993D02*
G01*
X190099901Y-63807007D01*
X190192993Y-63900099D01*
X190307007Y-63965925D01*
X190370590Y-63982962D01*
X189738282Y-64615269D01*
X189738282Y-64615270D01*
X189792452Y-64654626D01*
X189792451Y-64654626D01*
X189801495Y-64659234D01*
X189852292Y-64707208D01*
X189869087Y-64775029D01*
X189846550Y-64841164D01*
X189801499Y-64880202D01*
X189792182Y-64884949D01*
X189620213Y-65009890D01*
X189469890Y-65160213D01*
X189344949Y-65332182D01*
X189340484Y-65340946D01*
X189292509Y-65391742D01*
X189224688Y-65408536D01*
X189158553Y-65385998D01*
X189119516Y-65340946D01*
X189115050Y-65332182D01*
X188990109Y-65160213D01*
X188839786Y-65009890D01*
X188667820Y-64884951D01*
X188667115Y-64884591D01*
X188659054Y-64880485D01*
X188608259Y-64832512D01*
X188591463Y-64764692D01*
X188613999Y-64698556D01*
X188659054Y-64659515D01*
X188667816Y-64655051D01*
X188748500Y-64596431D01*
X188839786Y-64530109D01*
X188839788Y-64530106D01*
X188839792Y-64530104D01*
X188990104Y-64379792D01*
X188990106Y-64379788D01*
X188990109Y-64379786D01*
X189075890Y-64261717D01*
X189115051Y-64207816D01*
X189119793Y-64198508D01*
X189167763Y-64147711D01*
X189235583Y-64130911D01*
X189301719Y-64153445D01*
X189340763Y-64198500D01*
X189345373Y-64207547D01*
X189384728Y-64261716D01*
X190017037Y-63629408D01*
X190034075Y-63692993D01*
G37*
%TD.AperFunction*%
%TA.AperFunction,Conductor*%
G36*
X189301444Y-61613999D02*
G01*
X189340486Y-61659056D01*
X189344951Y-61667820D01*
X189469890Y-61839786D01*
X189620213Y-61990109D01*
X189792179Y-62115048D01*
X189792181Y-62115049D01*
X189792184Y-62115051D01*
X189801493Y-62119794D01*
X189852290Y-62167766D01*
X189869087Y-62235587D01*
X189846552Y-62301722D01*
X189801505Y-62340760D01*
X189792446Y-62345376D01*
X189792440Y-62345380D01*
X189738282Y-62384727D01*
X189738282Y-62384728D01*
X190370591Y-63017037D01*
X190307007Y-63034075D01*
X190192993Y-63099901D01*
X190099901Y-63192993D01*
X190034075Y-63307007D01*
X190017037Y-63370591D01*
X189384728Y-62738282D01*
X189384727Y-62738282D01*
X189345380Y-62792440D01*
X189345376Y-62792446D01*
X189340760Y-62801505D01*
X189292781Y-62852297D01*
X189224959Y-62869087D01*
X189158826Y-62846543D01*
X189119794Y-62801493D01*
X189115051Y-62792184D01*
X189115049Y-62792181D01*
X189115048Y-62792179D01*
X188990109Y-62620213D01*
X188839786Y-62469890D01*
X188667820Y-62344951D01*
X188659600Y-62340763D01*
X188659054Y-62340485D01*
X188608259Y-62292512D01*
X188591463Y-62224692D01*
X188613999Y-62158556D01*
X188659054Y-62119515D01*
X188667816Y-62115051D01*
X188748500Y-62056431D01*
X188839786Y-61990109D01*
X188839788Y-61990106D01*
X188839792Y-61990104D01*
X188990104Y-61839792D01*
X188990106Y-61839788D01*
X188990109Y-61839786D01*
X189115048Y-61667820D01*
X189115047Y-61667820D01*
X189115051Y-61667816D01*
X189119514Y-61659054D01*
X189167488Y-61608259D01*
X189235308Y-61591463D01*
X189301444Y-61613999D01*
G37*
%TD.AperFunction*%
%TA.AperFunction,Conductor*%
G36*
X254918834Y-40032915D02*
G01*
X254974767Y-40074787D01*
X254999184Y-40140251D01*
X254999500Y-40149097D01*
X254999500Y-86999902D01*
X254979815Y-87066941D01*
X254963181Y-87087583D01*
X253022181Y-89028583D01*
X252960858Y-89062068D01*
X252891166Y-89057084D01*
X252835233Y-89015212D01*
X252810816Y-88949748D01*
X252810500Y-88940902D01*
X252810500Y-88793713D01*
X252777246Y-88583760D01*
X252777246Y-88583757D01*
X252711557Y-88381588D01*
X252615051Y-88192184D01*
X252615049Y-88192181D01*
X252615048Y-88192179D01*
X252490109Y-88020213D01*
X252339786Y-87869890D01*
X252167820Y-87744951D01*
X252167115Y-87744591D01*
X252159054Y-87740485D01*
X252108259Y-87692512D01*
X252091463Y-87624692D01*
X252113999Y-87558556D01*
X252159054Y-87519515D01*
X252167816Y-87515051D01*
X252189789Y-87499086D01*
X252339786Y-87390109D01*
X252339788Y-87390106D01*
X252339792Y-87390104D01*
X252490104Y-87239792D01*
X252490106Y-87239788D01*
X252490109Y-87239786D01*
X252615048Y-87067820D01*
X252615047Y-87067820D01*
X252615051Y-87067816D01*
X252711557Y-86878412D01*
X252777246Y-86676243D01*
X252810500Y-86466287D01*
X252810500Y-86253713D01*
X252777246Y-86043757D01*
X252711557Y-85841588D01*
X252615051Y-85652184D01*
X252615049Y-85652181D01*
X252615048Y-85652179D01*
X252490109Y-85480213D01*
X252339786Y-85329890D01*
X252167820Y-85204951D01*
X252167115Y-85204591D01*
X252159054Y-85200485D01*
X252108259Y-85152512D01*
X252091463Y-85084692D01*
X252113999Y-85018556D01*
X252159054Y-84979515D01*
X252167816Y-84975051D01*
X252189789Y-84959086D01*
X252339786Y-84850109D01*
X252339788Y-84850106D01*
X252339792Y-84850104D01*
X252490104Y-84699792D01*
X252490106Y-84699788D01*
X252490109Y-84699786D01*
X252615048Y-84527820D01*
X252615047Y-84527820D01*
X252615051Y-84527816D01*
X252711557Y-84338412D01*
X252777246Y-84136243D01*
X252810500Y-83926287D01*
X252810500Y-83713713D01*
X252777246Y-83503757D01*
X252711557Y-83301588D01*
X252615051Y-83112184D01*
X252615049Y-83112181D01*
X252615048Y-83112179D01*
X252490109Y-82940213D01*
X252339786Y-82789890D01*
X252167820Y-82664951D01*
X252167115Y-82664591D01*
X252159054Y-82660485D01*
X252108259Y-82612512D01*
X252091463Y-82544692D01*
X252113999Y-82478556D01*
X252159054Y-82439515D01*
X252167816Y-82435051D01*
X252222572Y-82395269D01*
X252339786Y-82310109D01*
X252339788Y-82310106D01*
X252339792Y-82310104D01*
X252490104Y-82159792D01*
X252490106Y-82159788D01*
X252490109Y-82159786D01*
X252615048Y-81987820D01*
X252615047Y-81987820D01*
X252615051Y-81987816D01*
X252711557Y-81798412D01*
X252777246Y-81596243D01*
X252810500Y-81386287D01*
X252810500Y-81173713D01*
X252777246Y-80963757D01*
X252711557Y-80761588D01*
X252615051Y-80572184D01*
X252615049Y-80572181D01*
X252615048Y-80572179D01*
X252490109Y-80400213D01*
X252339786Y-80249890D01*
X252167817Y-80124949D01*
X252158504Y-80120204D01*
X252107707Y-80072230D01*
X252090912Y-80004409D01*
X252113449Y-79938274D01*
X252158507Y-79899232D01*
X252167555Y-79894622D01*
X252221716Y-79855270D01*
X252221717Y-79855270D01*
X251589408Y-79222962D01*
X251652993Y-79205925D01*
X251767007Y-79140099D01*
X251860099Y-79047007D01*
X251925925Y-78932993D01*
X251942962Y-78869408D01*
X252575270Y-79501717D01*
X252575270Y-79501716D01*
X252614622Y-79447554D01*
X252711095Y-79258217D01*
X252776757Y-79056130D01*
X252776757Y-79056127D01*
X252810000Y-78846246D01*
X252810000Y-78633753D01*
X252776757Y-78423872D01*
X252776757Y-78423869D01*
X252711095Y-78221782D01*
X252614624Y-78032449D01*
X252575270Y-77978282D01*
X252575269Y-77978282D01*
X251942962Y-78610590D01*
X251925925Y-78547007D01*
X251860099Y-78432993D01*
X251767007Y-78339901D01*
X251652993Y-78274075D01*
X251589409Y-78257037D01*
X252221716Y-77624728D01*
X252167547Y-77585373D01*
X252167547Y-77585372D01*
X252158500Y-77580763D01*
X252107706Y-77532788D01*
X252090912Y-77464966D01*
X252113451Y-77398832D01*
X252158508Y-77359793D01*
X252167816Y-77355051D01*
X252247007Y-77297515D01*
X252339786Y-77230109D01*
X252339788Y-77230106D01*
X252339792Y-77230104D01*
X252490104Y-77079792D01*
X252490106Y-77079788D01*
X252490109Y-77079786D01*
X252615048Y-76907820D01*
X252615047Y-76907820D01*
X252615051Y-76907816D01*
X252711557Y-76718412D01*
X252777246Y-76516243D01*
X252810500Y-76306287D01*
X252810500Y-76093713D01*
X252777246Y-75883757D01*
X252711557Y-75681588D01*
X252615051Y-75492184D01*
X252615049Y-75492181D01*
X252615048Y-75492179D01*
X252490109Y-75320213D01*
X252339786Y-75169890D01*
X252167820Y-75044951D01*
X252167115Y-75044591D01*
X252159054Y-75040485D01*
X252108259Y-74992512D01*
X252091463Y-74924692D01*
X252113999Y-74858556D01*
X252159054Y-74819515D01*
X252167816Y-74815051D01*
X252189789Y-74799086D01*
X252339786Y-74690109D01*
X252339788Y-74690106D01*
X252339792Y-74690104D01*
X252490104Y-74539792D01*
X252490106Y-74539788D01*
X252490109Y-74539786D01*
X252615048Y-74367820D01*
X252615047Y-74367820D01*
X252615051Y-74367816D01*
X252711557Y-74178412D01*
X252777246Y-73976243D01*
X252810500Y-73766287D01*
X252810500Y-73553713D01*
X252777246Y-73343757D01*
X252711557Y-73141588D01*
X252615051Y-72952184D01*
X252615049Y-72952181D01*
X252615048Y-72952179D01*
X252490109Y-72780213D01*
X252339786Y-72629890D01*
X252167820Y-72504951D01*
X252167115Y-72504591D01*
X252159054Y-72500485D01*
X252108259Y-72452512D01*
X252091463Y-72384692D01*
X252113999Y-72318556D01*
X252159054Y-72279515D01*
X252167816Y-72275051D01*
X252243566Y-72220016D01*
X252339786Y-72150109D01*
X252339788Y-72150106D01*
X252339792Y-72150104D01*
X252490104Y-71999792D01*
X252490106Y-71999788D01*
X252490109Y-71999786D01*
X252615048Y-71827820D01*
X252615047Y-71827820D01*
X252615051Y-71827816D01*
X252711557Y-71638412D01*
X252777246Y-71436243D01*
X252810500Y-71226287D01*
X252810500Y-71013713D01*
X252777246Y-70803757D01*
X252711557Y-70601588D01*
X252615051Y-70412184D01*
X252615049Y-70412181D01*
X252615048Y-70412179D01*
X252490109Y-70240213D01*
X252339786Y-70089890D01*
X252167820Y-69964951D01*
X252167115Y-69964591D01*
X252159054Y-69960485D01*
X252108259Y-69912512D01*
X252091463Y-69844692D01*
X252113999Y-69778556D01*
X252159054Y-69739515D01*
X252167816Y-69735051D01*
X252248500Y-69676431D01*
X252339786Y-69610109D01*
X252339788Y-69610106D01*
X252339792Y-69610104D01*
X252490104Y-69459792D01*
X252490106Y-69459788D01*
X252490109Y-69459786D01*
X252615048Y-69287820D01*
X252615047Y-69287820D01*
X252615051Y-69287816D01*
X252711557Y-69098412D01*
X252777246Y-68896243D01*
X252810500Y-68686287D01*
X252810500Y-68473713D01*
X252777246Y-68263757D01*
X252711557Y-68061588D01*
X252615051Y-67872184D01*
X252615049Y-67872181D01*
X252615048Y-67872179D01*
X252490109Y-67700213D01*
X252339786Y-67549890D01*
X252167820Y-67424951D01*
X252167115Y-67424591D01*
X252159054Y-67420485D01*
X252108259Y-67372512D01*
X252091463Y-67304692D01*
X252113999Y-67238556D01*
X252159054Y-67199515D01*
X252167816Y-67195051D01*
X252222572Y-67155269D01*
X252339786Y-67070109D01*
X252339788Y-67070106D01*
X252339792Y-67070104D01*
X252490104Y-66919792D01*
X252490106Y-66919788D01*
X252490109Y-66919786D01*
X252615048Y-66747820D01*
X252615047Y-66747820D01*
X252615051Y-66747816D01*
X252711557Y-66558412D01*
X252777246Y-66356243D01*
X252810500Y-66146287D01*
X252810500Y-65933713D01*
X252777246Y-65723757D01*
X252711557Y-65521588D01*
X252615051Y-65332184D01*
X252615049Y-65332181D01*
X252615048Y-65332179D01*
X252490109Y-65160213D01*
X252339786Y-65009890D01*
X252167820Y-64884951D01*
X252167115Y-64884591D01*
X252159054Y-64880485D01*
X252108259Y-64832512D01*
X252091463Y-64764692D01*
X252113999Y-64698556D01*
X252159054Y-64659515D01*
X252167816Y-64655051D01*
X252248500Y-64596431D01*
X252339786Y-64530109D01*
X252339788Y-64530106D01*
X252339792Y-64530104D01*
X252490104Y-64379792D01*
X252490106Y-64379788D01*
X252490109Y-64379786D01*
X252615048Y-64207820D01*
X252615047Y-64207820D01*
X252615051Y-64207816D01*
X252711557Y-64018412D01*
X252777246Y-63816243D01*
X252810500Y-63606287D01*
X252810500Y-63393713D01*
X252777246Y-63183757D01*
X252711557Y-62981588D01*
X252615051Y-62792184D01*
X252615049Y-62792181D01*
X252615048Y-62792179D01*
X252490109Y-62620213D01*
X252339786Y-62469890D01*
X252167820Y-62344951D01*
X252159600Y-62340763D01*
X252159054Y-62340485D01*
X252108259Y-62292512D01*
X252091463Y-62224692D01*
X252113999Y-62158556D01*
X252159054Y-62119515D01*
X252167816Y-62115051D01*
X252248500Y-62056431D01*
X252339786Y-61990109D01*
X252339788Y-61990106D01*
X252339792Y-61990104D01*
X252490104Y-61839792D01*
X252490106Y-61839788D01*
X252490109Y-61839786D01*
X252615048Y-61667820D01*
X252615047Y-61667820D01*
X252615051Y-61667816D01*
X252711557Y-61478412D01*
X252777246Y-61276243D01*
X252810500Y-61066287D01*
X252810500Y-60853713D01*
X252777246Y-60643757D01*
X252711557Y-60441588D01*
X252615051Y-60252184D01*
X252615049Y-60252181D01*
X252615048Y-60252179D01*
X252490109Y-60080213D01*
X252339786Y-59929890D01*
X252167820Y-59804951D01*
X252167115Y-59804591D01*
X252159054Y-59800485D01*
X252108259Y-59752512D01*
X252091463Y-59684692D01*
X252113999Y-59618556D01*
X252159054Y-59579515D01*
X252167816Y-59575051D01*
X252248500Y-59516431D01*
X252339786Y-59450109D01*
X252339788Y-59450106D01*
X252339792Y-59450104D01*
X252490104Y-59299792D01*
X252490106Y-59299788D01*
X252490109Y-59299786D01*
X252615048Y-59127820D01*
X252615047Y-59127820D01*
X252615051Y-59127816D01*
X252711557Y-58938412D01*
X252777246Y-58736243D01*
X252810500Y-58526287D01*
X252810500Y-58313713D01*
X252777246Y-58103757D01*
X252711557Y-57901588D01*
X252615051Y-57712184D01*
X252615049Y-57712181D01*
X252615048Y-57712179D01*
X252490109Y-57540213D01*
X252339786Y-57389890D01*
X252167820Y-57264951D01*
X252167115Y-57264591D01*
X252159054Y-57260485D01*
X252108259Y-57212512D01*
X252091463Y-57144692D01*
X252113999Y-57078556D01*
X252159054Y-57039515D01*
X252167816Y-57035051D01*
X252248500Y-56976431D01*
X252339786Y-56910109D01*
X252339788Y-56910106D01*
X252339792Y-56910104D01*
X252490104Y-56759792D01*
X252490106Y-56759788D01*
X252490109Y-56759786D01*
X252615048Y-56587820D01*
X252615047Y-56587820D01*
X252615051Y-56587816D01*
X252711557Y-56398412D01*
X252777246Y-56196243D01*
X252810500Y-55986287D01*
X252810500Y-55773713D01*
X252777246Y-55563757D01*
X252711557Y-55361588D01*
X252615051Y-55172184D01*
X252615049Y-55172181D01*
X252615048Y-55172179D01*
X252490109Y-55000213D01*
X252339786Y-54849890D01*
X252167820Y-54724951D01*
X251978414Y-54628444D01*
X251978413Y-54628443D01*
X251978412Y-54628443D01*
X251776243Y-54562754D01*
X251776241Y-54562753D01*
X251776240Y-54562753D01*
X251614957Y-54537208D01*
X251566287Y-54529500D01*
X251353713Y-54529500D01*
X251314202Y-54535757D01*
X251143759Y-54562753D01*
X251143755Y-54562754D01*
X251071817Y-54586128D01*
X251001976Y-54588123D01*
X250942143Y-54552042D01*
X250911316Y-54489341D01*
X250909500Y-54468197D01*
X250909500Y-43991097D01*
X250929185Y-43924058D01*
X250945819Y-43903416D01*
X254787819Y-40061416D01*
X254849142Y-40027931D01*
X254918834Y-40032915D01*
G37*
%TD.AperFunction*%
%TA.AperFunction,Conductor*%
G36*
X250994075Y-78932993D02*
G01*
X251059901Y-79047007D01*
X251152993Y-79140099D01*
X251267007Y-79205925D01*
X251330590Y-79222962D01*
X250698282Y-79855269D01*
X250698282Y-79855270D01*
X250752452Y-79894626D01*
X250752451Y-79894626D01*
X250761495Y-79899234D01*
X250812292Y-79947208D01*
X250829087Y-80015029D01*
X250806550Y-80081164D01*
X250761499Y-80120202D01*
X250752182Y-80124949D01*
X250580213Y-80249890D01*
X250429890Y-80400213D01*
X250304949Y-80572182D01*
X250300484Y-80580946D01*
X250252509Y-80631742D01*
X250184688Y-80648536D01*
X250118553Y-80625998D01*
X250079516Y-80580946D01*
X250075050Y-80572182D01*
X249950109Y-80400213D01*
X249799786Y-80249890D01*
X249627820Y-80124951D01*
X249627115Y-80124591D01*
X249619054Y-80120485D01*
X249568259Y-80072512D01*
X249551463Y-80004692D01*
X249573999Y-79938556D01*
X249619054Y-79899515D01*
X249627816Y-79895051D01*
X249682572Y-79855269D01*
X249799786Y-79770109D01*
X249799788Y-79770106D01*
X249799792Y-79770104D01*
X249950104Y-79619792D01*
X249950106Y-79619788D01*
X249950109Y-79619786D01*
X250035890Y-79501717D01*
X250075051Y-79447816D01*
X250079793Y-79438508D01*
X250127763Y-79387711D01*
X250195583Y-79370911D01*
X250261719Y-79393445D01*
X250300763Y-79438500D01*
X250305373Y-79447547D01*
X250344728Y-79501716D01*
X250977037Y-78869408D01*
X250994075Y-78932993D01*
G37*
%TD.AperFunction*%
%TA.AperFunction,Conductor*%
G36*
X250261444Y-76853999D02*
G01*
X250300486Y-76899056D01*
X250304951Y-76907820D01*
X250429890Y-77079786D01*
X250580213Y-77230109D01*
X250752179Y-77355048D01*
X250752181Y-77355049D01*
X250752184Y-77355051D01*
X250761493Y-77359794D01*
X250812290Y-77407766D01*
X250829087Y-77475587D01*
X250806552Y-77541722D01*
X250761505Y-77580760D01*
X250752446Y-77585376D01*
X250752440Y-77585380D01*
X250698282Y-77624727D01*
X250698282Y-77624728D01*
X251330591Y-78257037D01*
X251267007Y-78274075D01*
X251152993Y-78339901D01*
X251059901Y-78432993D01*
X250994075Y-78547007D01*
X250977037Y-78610590D01*
X250344728Y-77978282D01*
X250344727Y-77978282D01*
X250305380Y-78032440D01*
X250305376Y-78032446D01*
X250300760Y-78041505D01*
X250252781Y-78092297D01*
X250184959Y-78109087D01*
X250118826Y-78086543D01*
X250079794Y-78041493D01*
X250075051Y-78032184D01*
X250075049Y-78032181D01*
X250075048Y-78032179D01*
X249950109Y-77860213D01*
X249799786Y-77709890D01*
X249627820Y-77584951D01*
X249619600Y-77580763D01*
X249619054Y-77580485D01*
X249568259Y-77532512D01*
X249551463Y-77464692D01*
X249573999Y-77398556D01*
X249619054Y-77359515D01*
X249627816Y-77355051D01*
X249649789Y-77339086D01*
X249799786Y-77230109D01*
X249799788Y-77230106D01*
X249799792Y-77230104D01*
X249950104Y-77079792D01*
X249950106Y-77079788D01*
X249950109Y-77079786D01*
X250075048Y-76907820D01*
X250075047Y-76907820D01*
X250075051Y-76907816D01*
X250079514Y-76899054D01*
X250127488Y-76848259D01*
X250195308Y-76831463D01*
X250261444Y-76853999D01*
G37*
%TD.AperFunction*%
%TA.AperFunction,Conductor*%
G36*
X281143375Y-18300185D02*
G01*
X281189130Y-18352989D01*
X281200335Y-18404361D01*
X281251461Y-64775029D01*
X281299774Y-108595363D01*
X281280163Y-108662424D01*
X281227410Y-108708238D01*
X281175774Y-108719500D01*
X183524452Y-108719500D01*
X183457413Y-108699815D01*
X183411658Y-108647011D01*
X183400452Y-108595226D01*
X183413952Y-102479786D01*
X183517056Y-55773713D01*
X186609500Y-55773713D01*
X186609500Y-55986286D01*
X186642753Y-56196239D01*
X186708444Y-56398414D01*
X186804951Y-56587820D01*
X186929890Y-56759786D01*
X187080213Y-56910109D01*
X187252182Y-57035050D01*
X187260946Y-57039516D01*
X187311742Y-57087491D01*
X187328536Y-57155312D01*
X187305998Y-57221447D01*
X187260946Y-57260484D01*
X187252182Y-57264949D01*
X187080213Y-57389890D01*
X186929890Y-57540213D01*
X186804951Y-57712179D01*
X186708444Y-57901585D01*
X186642753Y-58103760D01*
X186609500Y-58313713D01*
X186609500Y-58526286D01*
X186642753Y-58736239D01*
X186708444Y-58938414D01*
X186804951Y-59127820D01*
X186929890Y-59299786D01*
X187080213Y-59450109D01*
X187252182Y-59575050D01*
X187260946Y-59579516D01*
X187311742Y-59627491D01*
X187328536Y-59695312D01*
X187305998Y-59761447D01*
X187260946Y-59800484D01*
X187252182Y-59804949D01*
X187080213Y-59929890D01*
X186929890Y-60080213D01*
X186804951Y-60252179D01*
X186708444Y-60441585D01*
X186642753Y-60643760D01*
X186609500Y-60853713D01*
X186609500Y-61066286D01*
X186642753Y-61276239D01*
X186708444Y-61478414D01*
X186804951Y-61667820D01*
X186929890Y-61839786D01*
X187080213Y-61990109D01*
X187252182Y-62115050D01*
X187260946Y-62119516D01*
X187311742Y-62167491D01*
X187328536Y-62235312D01*
X187305998Y-62301447D01*
X187260946Y-62340484D01*
X187252182Y-62344949D01*
X187080213Y-62469890D01*
X186929890Y-62620213D01*
X186804951Y-62792179D01*
X186708444Y-62981585D01*
X186642753Y-63183760D01*
X186609500Y-63393713D01*
X186609500Y-63606286D01*
X186642753Y-63816239D01*
X186708444Y-64018414D01*
X186804951Y-64207820D01*
X186929890Y-64379786D01*
X187080213Y-64530109D01*
X187252182Y-64655050D01*
X187260946Y-64659516D01*
X187311742Y-64707491D01*
X187328536Y-64775312D01*
X187305998Y-64841447D01*
X187260946Y-64880484D01*
X187252182Y-64884949D01*
X187080213Y-65009890D01*
X186929890Y-65160213D01*
X186804951Y-65332179D01*
X186708444Y-65521585D01*
X186642753Y-65723760D01*
X186609500Y-65933713D01*
X186609500Y-66146286D01*
X186642753Y-66356239D01*
X186708444Y-66558414D01*
X186804951Y-66747820D01*
X186929890Y-66919786D01*
X187080213Y-67070109D01*
X187252182Y-67195050D01*
X187260946Y-67199516D01*
X187311742Y-67247491D01*
X187328536Y-67315312D01*
X187305998Y-67381447D01*
X187260946Y-67420484D01*
X187252182Y-67424949D01*
X187080213Y-67549890D01*
X186929890Y-67700213D01*
X186804951Y-67872179D01*
X186708444Y-68061585D01*
X186642753Y-68263760D01*
X186609500Y-68473713D01*
X186609500Y-68686286D01*
X186642753Y-68896239D01*
X186708444Y-69098414D01*
X186804951Y-69287820D01*
X186929890Y-69459786D01*
X187080213Y-69610109D01*
X187252182Y-69735050D01*
X187260946Y-69739516D01*
X187311742Y-69787491D01*
X187328536Y-69855312D01*
X187305998Y-69921447D01*
X187260946Y-69960484D01*
X187252182Y-69964949D01*
X187080213Y-70089890D01*
X186929890Y-70240213D01*
X186804951Y-70412179D01*
X186708444Y-70601585D01*
X186642753Y-70803760D01*
X186641431Y-70812110D01*
X186609500Y-71013713D01*
X186609500Y-71226287D01*
X186642754Y-71436243D01*
X186674631Y-71534351D01*
X186708444Y-71638414D01*
X186804951Y-71827820D01*
X186929890Y-71999786D01*
X187080213Y-72150109D01*
X187252182Y-72275050D01*
X187260946Y-72279516D01*
X187311742Y-72327491D01*
X187328536Y-72395312D01*
X187305998Y-72461447D01*
X187260946Y-72500484D01*
X187252182Y-72504949D01*
X187080213Y-72629890D01*
X186929890Y-72780213D01*
X186804951Y-72952179D01*
X186708444Y-73141585D01*
X186642753Y-73343760D01*
X186609500Y-73553713D01*
X186609500Y-73766286D01*
X186642753Y-73976239D01*
X186708444Y-74178414D01*
X186804951Y-74367820D01*
X186929890Y-74539786D01*
X187080213Y-74690109D01*
X187252182Y-74815050D01*
X187260946Y-74819516D01*
X187311742Y-74867491D01*
X187328536Y-74935312D01*
X187305998Y-75001447D01*
X187260946Y-75040484D01*
X187252182Y-75044949D01*
X187080213Y-75169890D01*
X186929890Y-75320213D01*
X186804951Y-75492179D01*
X186708444Y-75681585D01*
X186642753Y-75883760D01*
X186609500Y-76093713D01*
X186609500Y-76306286D01*
X186642753Y-76516239D01*
X186708444Y-76718414D01*
X186804951Y-76907820D01*
X186929890Y-77079786D01*
X187080213Y-77230109D01*
X187252179Y-77355048D01*
X187252181Y-77355049D01*
X187252184Y-77355051D01*
X187261493Y-77359794D01*
X187312290Y-77407766D01*
X187329087Y-77475587D01*
X187306552Y-77541722D01*
X187261505Y-77580760D01*
X187252446Y-77585376D01*
X187252440Y-77585380D01*
X187198282Y-77624727D01*
X187198282Y-77624728D01*
X187830591Y-78257037D01*
X187767007Y-78274075D01*
X187652993Y-78339901D01*
X187559901Y-78432993D01*
X187494075Y-78547007D01*
X187477037Y-78610590D01*
X186844728Y-77978282D01*
X186844727Y-77978282D01*
X186805380Y-78032439D01*
X186708904Y-78221782D01*
X186643242Y-78423869D01*
X186643242Y-78423872D01*
X186610000Y-78633753D01*
X186610000Y-78846246D01*
X186643242Y-79056127D01*
X186643242Y-79056130D01*
X186708904Y-79258217D01*
X186805375Y-79447550D01*
X186844728Y-79501716D01*
X187477037Y-78869408D01*
X187494075Y-78932993D01*
X187559901Y-79047007D01*
X187652993Y-79140099D01*
X187767007Y-79205925D01*
X187830590Y-79222962D01*
X187198282Y-79855269D01*
X187198282Y-79855270D01*
X187252452Y-79894626D01*
X187252451Y-79894626D01*
X187261495Y-79899234D01*
X187312292Y-79947208D01*
X187329087Y-80015029D01*
X187306550Y-80081164D01*
X187261499Y-80120202D01*
X187252182Y-80124949D01*
X187080213Y-80249890D01*
X186929890Y-80400213D01*
X186804951Y-80572179D01*
X186708444Y-80761585D01*
X186642753Y-80963760D01*
X186609500Y-81173713D01*
X186609500Y-81386286D01*
X186642753Y-81596239D01*
X186708444Y-81798414D01*
X186804951Y-81987820D01*
X186929890Y-82159786D01*
X187080213Y-82310109D01*
X187252182Y-82435050D01*
X187260946Y-82439516D01*
X187311742Y-82487491D01*
X187328536Y-82555312D01*
X187305998Y-82621447D01*
X187260946Y-82660484D01*
X187252182Y-82664949D01*
X187080213Y-82789890D01*
X186929890Y-82940213D01*
X186804951Y-83112179D01*
X186708444Y-83301585D01*
X186642753Y-83503760D01*
X186609500Y-83713713D01*
X186609500Y-83926286D01*
X186642753Y-84136239D01*
X186708444Y-84338414D01*
X186804951Y-84527820D01*
X186929890Y-84699786D01*
X187080213Y-84850109D01*
X187252182Y-84975050D01*
X187260946Y-84979516D01*
X187311742Y-85027491D01*
X187328536Y-85095312D01*
X187305998Y-85161447D01*
X187260946Y-85200484D01*
X187252182Y-85204949D01*
X187080213Y-85329890D01*
X186929890Y-85480213D01*
X186804951Y-85652179D01*
X186708444Y-85841585D01*
X186642753Y-86043760D01*
X186609500Y-86253713D01*
X186609500Y-86466286D01*
X186642753Y-86676239D01*
X186708444Y-86878414D01*
X186804951Y-87067820D01*
X186929890Y-87239786D01*
X187080213Y-87390109D01*
X187252182Y-87515050D01*
X187260946Y-87519516D01*
X187311742Y-87567491D01*
X187328536Y-87635312D01*
X187305998Y-87701447D01*
X187260946Y-87740484D01*
X187252182Y-87744949D01*
X187080213Y-87869890D01*
X186929890Y-88020213D01*
X186804951Y-88192179D01*
X186708444Y-88381585D01*
X186642753Y-88583760D01*
X186609500Y-88793713D01*
X186609500Y-89006287D01*
X186642754Y-89216243D01*
X186670321Y-89301086D01*
X186708444Y-89418414D01*
X186804951Y-89607820D01*
X186929890Y-89779786D01*
X187080213Y-89930109D01*
X187252182Y-90055050D01*
X187260946Y-90059516D01*
X187311742Y-90107491D01*
X187328536Y-90175312D01*
X187305998Y-90241447D01*
X187260946Y-90280484D01*
X187252182Y-90284949D01*
X187080213Y-90409890D01*
X186929890Y-90560213D01*
X186804951Y-90732179D01*
X186708444Y-90921585D01*
X186642753Y-91123760D01*
X186642753Y-91123762D01*
X186609500Y-91333713D01*
X186609500Y-91546287D01*
X186642754Y-91756243D01*
X186707068Y-91954181D01*
X186708444Y-91958414D01*
X186804951Y-92147820D01*
X186929890Y-92319786D01*
X187080213Y-92470109D01*
X187252182Y-92595050D01*
X187260946Y-92599516D01*
X187311742Y-92647491D01*
X187328536Y-92715312D01*
X187305998Y-92781447D01*
X187260946Y-92820484D01*
X187252182Y-92824949D01*
X187080213Y-92949890D01*
X187080209Y-92949894D01*
X186929896Y-93100208D01*
X186929890Y-93100213D01*
X186804951Y-93272179D01*
X186708444Y-93461585D01*
X186642753Y-93663760D01*
X186609500Y-93873713D01*
X186609500Y-94086286D01*
X186642753Y-94296239D01*
X186708444Y-94498414D01*
X186804951Y-94687820D01*
X186929890Y-94859786D01*
X187080213Y-95010109D01*
X187252182Y-95135050D01*
X187260946Y-95139516D01*
X187311742Y-95187491D01*
X187328536Y-95255312D01*
X187305998Y-95321447D01*
X187260946Y-95360484D01*
X187252182Y-95364949D01*
X187080213Y-95489890D01*
X186929890Y-95640213D01*
X186804951Y-95812179D01*
X186708444Y-96001585D01*
X186642753Y-96203760D01*
X186609500Y-96413713D01*
X186609500Y-96626286D01*
X186642753Y-96836239D01*
X186708444Y-97038414D01*
X186804951Y-97227820D01*
X186929890Y-97399786D01*
X187080213Y-97550109D01*
X187252182Y-97675050D01*
X187260946Y-97679516D01*
X187311742Y-97727491D01*
X187328536Y-97795312D01*
X187305998Y-97861447D01*
X187260946Y-97900484D01*
X187252182Y-97904949D01*
X187080213Y-98029890D01*
X186929890Y-98180213D01*
X186804951Y-98352179D01*
X186708444Y-98541585D01*
X186642753Y-98743760D01*
X186609500Y-98953713D01*
X186609500Y-99166286D01*
X186642753Y-99376239D01*
X186708444Y-99578414D01*
X186804951Y-99767820D01*
X186929890Y-99939786D01*
X187080213Y-100090109D01*
X187252182Y-100215050D01*
X187260946Y-100219516D01*
X187311742Y-100267491D01*
X187328536Y-100335312D01*
X187305998Y-100401447D01*
X187260946Y-100440484D01*
X187252182Y-100444949D01*
X187080213Y-100569890D01*
X186929890Y-100720213D01*
X186804951Y-100892179D01*
X186708444Y-101081585D01*
X186642753Y-101283760D01*
X186609500Y-101493713D01*
X186609500Y-101706286D01*
X186642753Y-101916239D01*
X186708444Y-102118414D01*
X186804951Y-102307820D01*
X186929890Y-102479786D01*
X187080213Y-102630109D01*
X187252179Y-102755048D01*
X187252181Y-102755049D01*
X187252184Y-102755051D01*
X187441588Y-102851557D01*
X187643757Y-102917246D01*
X187853713Y-102950500D01*
X187853714Y-102950500D01*
X188066286Y-102950500D01*
X188066287Y-102950500D01*
X188276243Y-102917246D01*
X188478412Y-102851557D01*
X188667816Y-102755051D01*
X188689789Y-102739086D01*
X188839786Y-102630109D01*
X188839788Y-102630106D01*
X188839792Y-102630104D01*
X188990104Y-102479792D01*
X188990106Y-102479788D01*
X188990109Y-102479786D01*
X189115048Y-102307820D01*
X189115047Y-102307820D01*
X189115051Y-102307816D01*
X189119514Y-102299054D01*
X189167488Y-102248259D01*
X189235308Y-102231463D01*
X189301444Y-102253999D01*
X189340486Y-102299056D01*
X189344951Y-102307820D01*
X189469890Y-102479786D01*
X189620213Y-102630109D01*
X189792179Y-102755048D01*
X189792181Y-102755049D01*
X189792184Y-102755051D01*
X189981588Y-102851557D01*
X190183757Y-102917246D01*
X190393713Y-102950500D01*
X190393714Y-102950500D01*
X190606286Y-102950500D01*
X190606287Y-102950500D01*
X190816243Y-102917246D01*
X191018412Y-102851557D01*
X191207816Y-102755051D01*
X191229789Y-102739086D01*
X191379786Y-102630109D01*
X191379788Y-102630106D01*
X191379792Y-102630104D01*
X191530104Y-102479792D01*
X191530106Y-102479788D01*
X191530109Y-102479786D01*
X191655048Y-102307820D01*
X191655047Y-102307820D01*
X191655051Y-102307816D01*
X191751557Y-102118412D01*
X191817246Y-101916243D01*
X191850500Y-101706287D01*
X191850500Y-101493713D01*
X191817246Y-101283757D01*
X191751557Y-101081588D01*
X191655051Y-100892184D01*
X191655049Y-100892181D01*
X191655048Y-100892179D01*
X191530109Y-100720213D01*
X191379786Y-100569890D01*
X191207820Y-100444951D01*
X191207115Y-100444591D01*
X191199054Y-100440485D01*
X191148259Y-100392512D01*
X191131463Y-100324692D01*
X191153999Y-100258556D01*
X191199054Y-100219515D01*
X191207816Y-100215051D01*
X191229789Y-100199086D01*
X191379786Y-100090109D01*
X191379788Y-100090106D01*
X191379792Y-100090104D01*
X191530104Y-99939792D01*
X191530106Y-99939788D01*
X191530109Y-99939786D01*
X191655048Y-99767820D01*
X191655047Y-99767820D01*
X191655051Y-99767816D01*
X191751557Y-99578412D01*
X191817246Y-99376243D01*
X191850500Y-99166287D01*
X191850500Y-98953713D01*
X191817246Y-98743757D01*
X191751557Y-98541588D01*
X191655051Y-98352184D01*
X191655049Y-98352181D01*
X191655048Y-98352179D01*
X191530109Y-98180213D01*
X191379786Y-98029890D01*
X191207820Y-97904951D01*
X191207115Y-97904591D01*
X191199054Y-97900485D01*
X191148259Y-97852512D01*
X191131463Y-97784692D01*
X191153999Y-97718556D01*
X191199054Y-97679515D01*
X191207816Y-97675051D01*
X191229789Y-97659086D01*
X191379786Y-97550109D01*
X191379788Y-97550106D01*
X191379792Y-97550104D01*
X191530104Y-97399792D01*
X191530106Y-97399788D01*
X191530109Y-97399786D01*
X191655048Y-97227820D01*
X191655047Y-97227820D01*
X191655051Y-97227816D01*
X191751557Y-97038412D01*
X191817246Y-96836243D01*
X191850500Y-96626287D01*
X191850500Y-96413713D01*
X191817246Y-96203757D01*
X191751557Y-96001588D01*
X191655051Y-95812184D01*
X191655049Y-95812181D01*
X191655048Y-95812179D01*
X191530109Y-95640213D01*
X191379786Y-95489890D01*
X191207820Y-95364951D01*
X191207115Y-95364591D01*
X191199054Y-95360485D01*
X191148259Y-95312512D01*
X191131463Y-95244692D01*
X191153999Y-95178556D01*
X191199054Y-95139515D01*
X191207816Y-95135051D01*
X191229789Y-95119086D01*
X191379786Y-95010109D01*
X191379788Y-95010106D01*
X191379792Y-95010104D01*
X191530104Y-94859792D01*
X191530106Y-94859788D01*
X191530109Y-94859786D01*
X191655048Y-94687820D01*
X191655047Y-94687820D01*
X191655051Y-94687816D01*
X191751557Y-94498412D01*
X191817246Y-94296243D01*
X191850500Y-94086287D01*
X191850500Y-93873713D01*
X191817246Y-93663757D01*
X191751557Y-93461588D01*
X191655051Y-93272184D01*
X191655049Y-93272181D01*
X191655048Y-93272179D01*
X191530109Y-93100213D01*
X191379786Y-92949890D01*
X191207820Y-92824951D01*
X191207115Y-92824591D01*
X191199054Y-92820485D01*
X191148259Y-92772512D01*
X191131463Y-92704692D01*
X191153999Y-92638556D01*
X191199054Y-92599515D01*
X191207816Y-92595051D01*
X191229789Y-92579086D01*
X191379786Y-92470109D01*
X191379788Y-92470106D01*
X191379792Y-92470104D01*
X191530104Y-92319792D01*
X191530106Y-92319788D01*
X191530109Y-92319786D01*
X191655048Y-92147820D01*
X191655047Y-92147820D01*
X191655051Y-92147816D01*
X191751557Y-91958412D01*
X191817246Y-91756243D01*
X191850500Y-91546287D01*
X191850500Y-91333713D01*
X191817246Y-91123757D01*
X191751557Y-90921588D01*
X191655051Y-90732184D01*
X191655049Y-90732181D01*
X191655048Y-90732179D01*
X191530109Y-90560213D01*
X191379786Y-90409890D01*
X191207820Y-90284951D01*
X191207115Y-90284591D01*
X191199054Y-90280485D01*
X191148259Y-90232512D01*
X191131463Y-90164692D01*
X191153999Y-90098556D01*
X191199054Y-90059515D01*
X191207816Y-90055051D01*
X191284247Y-89999521D01*
X191379786Y-89930109D01*
X191379788Y-89930106D01*
X191379792Y-89930104D01*
X191530104Y-89779792D01*
X191530106Y-89779788D01*
X191530109Y-89779786D01*
X191655048Y-89607820D01*
X191655047Y-89607820D01*
X191655051Y-89607816D01*
X191751557Y-89418412D01*
X191817246Y-89216243D01*
X191850500Y-89006287D01*
X191850500Y-88793713D01*
X191817246Y-88583757D01*
X191751557Y-88381588D01*
X191655051Y-88192184D01*
X191655049Y-88192181D01*
X191655048Y-88192179D01*
X191530109Y-88020213D01*
X191379786Y-87869890D01*
X191207820Y-87744951D01*
X191207115Y-87744591D01*
X191199054Y-87740485D01*
X191148259Y-87692512D01*
X191131463Y-87624692D01*
X191153999Y-87558556D01*
X191199054Y-87519515D01*
X191207816Y-87515051D01*
X191229789Y-87499086D01*
X191379786Y-87390109D01*
X191379788Y-87390106D01*
X191379792Y-87390104D01*
X191530104Y-87239792D01*
X191530106Y-87239788D01*
X191530109Y-87239786D01*
X191655048Y-87067820D01*
X191655047Y-87067820D01*
X191655051Y-87067816D01*
X191751557Y-86878412D01*
X191817246Y-86676243D01*
X191850500Y-86466287D01*
X191850500Y-86253713D01*
X191817246Y-86043757D01*
X191751557Y-85841588D01*
X191655051Y-85652184D01*
X191655049Y-85652181D01*
X191655048Y-85652179D01*
X191530109Y-85480213D01*
X191379786Y-85329890D01*
X191207820Y-85204951D01*
X191207115Y-85204591D01*
X191199054Y-85200485D01*
X191148259Y-85152512D01*
X191131463Y-85084692D01*
X191153999Y-85018556D01*
X191199054Y-84979515D01*
X191207816Y-84975051D01*
X191229789Y-84959086D01*
X191379786Y-84850109D01*
X191379788Y-84850106D01*
X191379792Y-84850104D01*
X191530104Y-84699792D01*
X191530106Y-84699788D01*
X191530109Y-84699786D01*
X191655048Y-84527820D01*
X191655047Y-84527820D01*
X191655051Y-84527816D01*
X191751557Y-84338412D01*
X191817246Y-84136243D01*
X191850500Y-83926287D01*
X191850500Y-83713713D01*
X191817246Y-83503757D01*
X191751557Y-83301588D01*
X191655051Y-83112184D01*
X191655049Y-83112181D01*
X191655048Y-83112179D01*
X191530109Y-82940213D01*
X191379786Y-82789890D01*
X191207817Y-82664949D01*
X191198504Y-82660204D01*
X191147707Y-82612230D01*
X191130912Y-82544409D01*
X191153449Y-82478274D01*
X191198507Y-82439232D01*
X191207555Y-82434622D01*
X191261716Y-82395270D01*
X191261717Y-82395270D01*
X190629408Y-81762962D01*
X190692993Y-81745925D01*
X190807007Y-81680099D01*
X190900099Y-81587007D01*
X190965925Y-81472993D01*
X190982962Y-81409408D01*
X191615270Y-82041717D01*
X191615270Y-82041716D01*
X191654622Y-81987554D01*
X191751095Y-81798217D01*
X191816757Y-81596130D01*
X191816757Y-81596127D01*
X191850000Y-81386246D01*
X191850000Y-81173753D01*
X191816757Y-80963872D01*
X191816757Y-80963869D01*
X191751095Y-80761782D01*
X191654624Y-80572449D01*
X191615270Y-80518282D01*
X191615269Y-80518282D01*
X190982962Y-81150590D01*
X190965925Y-81087007D01*
X190900099Y-80972993D01*
X190807007Y-80879901D01*
X190692993Y-80814075D01*
X190629409Y-80797037D01*
X191261716Y-80164728D01*
X191207550Y-80125375D01*
X191197954Y-80120486D01*
X191147157Y-80072512D01*
X191130361Y-80004692D01*
X191152897Y-79938556D01*
X191197954Y-79899514D01*
X191207554Y-79894622D01*
X191261716Y-79855270D01*
X191261717Y-79855270D01*
X190629408Y-79222962D01*
X190692993Y-79205925D01*
X190807007Y-79140099D01*
X190900099Y-79047007D01*
X190965925Y-78932993D01*
X190982962Y-78869408D01*
X191615270Y-79501717D01*
X191615270Y-79501716D01*
X191654622Y-79447554D01*
X191751095Y-79258217D01*
X191816757Y-79056130D01*
X191816757Y-79056127D01*
X191850000Y-78846246D01*
X191850000Y-78633753D01*
X191816757Y-78423872D01*
X191816757Y-78423869D01*
X191751095Y-78221782D01*
X191654624Y-78032449D01*
X191615270Y-77978282D01*
X191615269Y-77978282D01*
X190982962Y-78610590D01*
X190965925Y-78547007D01*
X190900099Y-78432993D01*
X190807007Y-78339901D01*
X190692993Y-78274075D01*
X190629409Y-78257037D01*
X191261716Y-77624728D01*
X191207547Y-77585373D01*
X191207547Y-77585372D01*
X191198500Y-77580763D01*
X191147706Y-77532788D01*
X191130912Y-77464966D01*
X191153451Y-77398832D01*
X191198508Y-77359793D01*
X191207816Y-77355051D01*
X191287007Y-77297515D01*
X191379786Y-77230109D01*
X191379788Y-77230106D01*
X191379792Y-77230104D01*
X191530104Y-77079792D01*
X191530106Y-77079788D01*
X191530109Y-77079786D01*
X191655048Y-76907820D01*
X191655047Y-76907820D01*
X191655051Y-76907816D01*
X191751557Y-76718412D01*
X191817246Y-76516243D01*
X191850500Y-76306287D01*
X191850500Y-76093713D01*
X191817246Y-75883757D01*
X191751557Y-75681588D01*
X191655051Y-75492184D01*
X191655049Y-75492181D01*
X191655048Y-75492179D01*
X191530109Y-75320213D01*
X191379786Y-75169890D01*
X191207820Y-75044951D01*
X191207115Y-75044591D01*
X191199054Y-75040485D01*
X191148259Y-74992512D01*
X191131463Y-74924692D01*
X191153999Y-74858556D01*
X191199054Y-74819515D01*
X191207816Y-74815051D01*
X191229789Y-74799086D01*
X191379786Y-74690109D01*
X191379788Y-74690106D01*
X191379792Y-74690104D01*
X191530104Y-74539792D01*
X191530106Y-74539788D01*
X191530109Y-74539786D01*
X191655048Y-74367820D01*
X191655047Y-74367820D01*
X191655051Y-74367816D01*
X191751557Y-74178412D01*
X191817246Y-73976243D01*
X191850500Y-73766287D01*
X191850500Y-73553713D01*
X191817246Y-73343757D01*
X191751557Y-73141588D01*
X191655051Y-72952184D01*
X191655049Y-72952181D01*
X191655048Y-72952179D01*
X191530109Y-72780213D01*
X191379786Y-72629890D01*
X191207820Y-72504951D01*
X191207115Y-72504591D01*
X191199054Y-72500485D01*
X191148259Y-72452512D01*
X191131463Y-72384692D01*
X191153999Y-72318556D01*
X191199054Y-72279515D01*
X191207816Y-72275051D01*
X191283566Y-72220016D01*
X191379786Y-72150109D01*
X191379788Y-72150106D01*
X191379792Y-72150104D01*
X191530104Y-71999792D01*
X191530106Y-71999788D01*
X191530109Y-71999786D01*
X191655048Y-71827820D01*
X191655047Y-71827820D01*
X191655051Y-71827816D01*
X191751557Y-71638412D01*
X191817246Y-71436243D01*
X191850500Y-71226287D01*
X191850500Y-71013713D01*
X191817246Y-70803757D01*
X191751557Y-70601588D01*
X191655051Y-70412184D01*
X191655049Y-70412181D01*
X191655048Y-70412179D01*
X191530109Y-70240213D01*
X191379786Y-70089890D01*
X191207820Y-69964951D01*
X191207115Y-69964591D01*
X191199054Y-69960485D01*
X191148259Y-69912512D01*
X191131463Y-69844692D01*
X191153999Y-69778556D01*
X191199054Y-69739515D01*
X191207816Y-69735051D01*
X191288500Y-69676431D01*
X191379786Y-69610109D01*
X191379788Y-69610106D01*
X191379792Y-69610104D01*
X191530104Y-69459792D01*
X191530106Y-69459788D01*
X191530109Y-69459786D01*
X191655048Y-69287820D01*
X191655047Y-69287820D01*
X191655051Y-69287816D01*
X191751557Y-69098412D01*
X191817246Y-68896243D01*
X191850500Y-68686287D01*
X191850500Y-68473713D01*
X191817246Y-68263757D01*
X191751557Y-68061588D01*
X191655051Y-67872184D01*
X191655049Y-67872181D01*
X191655048Y-67872179D01*
X191530109Y-67700213D01*
X191379786Y-67549890D01*
X191207820Y-67424951D01*
X191207115Y-67424591D01*
X191199054Y-67420485D01*
X191148259Y-67372512D01*
X191131463Y-67304692D01*
X191153999Y-67238556D01*
X191199054Y-67199515D01*
X191207816Y-67195051D01*
X191262572Y-67155269D01*
X191379786Y-67070109D01*
X191379788Y-67070106D01*
X191379792Y-67070104D01*
X191530104Y-66919792D01*
X191530106Y-66919788D01*
X191530109Y-66919786D01*
X191655048Y-66747820D01*
X191655047Y-66747820D01*
X191655051Y-66747816D01*
X191751557Y-66558412D01*
X191817246Y-66356243D01*
X191850500Y-66146287D01*
X191850500Y-65933713D01*
X191817246Y-65723757D01*
X191751557Y-65521588D01*
X191655051Y-65332184D01*
X191655049Y-65332181D01*
X191655048Y-65332179D01*
X191530109Y-65160213D01*
X191379786Y-65009890D01*
X191207817Y-64884949D01*
X191198504Y-64880204D01*
X191147707Y-64832230D01*
X191130912Y-64764409D01*
X191153449Y-64698274D01*
X191198507Y-64659232D01*
X191207555Y-64654622D01*
X191261716Y-64615270D01*
X191261717Y-64615270D01*
X190629408Y-63982962D01*
X190692993Y-63965925D01*
X190807007Y-63900099D01*
X190900099Y-63807007D01*
X190965925Y-63692993D01*
X190982962Y-63629408D01*
X191615270Y-64261717D01*
X191615270Y-64261716D01*
X191654622Y-64207554D01*
X191751095Y-64018217D01*
X191816757Y-63816130D01*
X191816757Y-63816127D01*
X191850000Y-63606246D01*
X191850000Y-63393753D01*
X191816757Y-63183872D01*
X191816757Y-63183869D01*
X191751095Y-62981782D01*
X191654624Y-62792449D01*
X191615270Y-62738282D01*
X191615269Y-62738282D01*
X190982962Y-63370590D01*
X190965925Y-63307007D01*
X190900099Y-63192993D01*
X190807007Y-63099901D01*
X190692993Y-63034075D01*
X190629409Y-63017037D01*
X191261716Y-62384728D01*
X191207547Y-62345373D01*
X191207547Y-62345372D01*
X191198500Y-62340763D01*
X191147706Y-62292788D01*
X191130912Y-62224966D01*
X191153451Y-62158832D01*
X191198508Y-62119793D01*
X191207816Y-62115051D01*
X191288500Y-62056431D01*
X191379786Y-61990109D01*
X191379788Y-61990106D01*
X191379792Y-61990104D01*
X191530104Y-61839792D01*
X191530106Y-61839788D01*
X191530109Y-61839786D01*
X191655048Y-61667820D01*
X191655047Y-61667820D01*
X191655051Y-61667816D01*
X191751557Y-61478412D01*
X191817246Y-61276243D01*
X191850500Y-61066287D01*
X191850500Y-60853713D01*
X191817246Y-60643757D01*
X191751557Y-60441588D01*
X191655051Y-60252184D01*
X191655049Y-60252181D01*
X191655048Y-60252179D01*
X191530109Y-60080213D01*
X191379786Y-59929890D01*
X191207820Y-59804951D01*
X191207115Y-59804591D01*
X191199054Y-59800485D01*
X191148259Y-59752512D01*
X191131463Y-59684692D01*
X191153999Y-59618556D01*
X191199054Y-59579515D01*
X191207816Y-59575051D01*
X191288500Y-59516431D01*
X191379786Y-59450109D01*
X191379788Y-59450106D01*
X191379792Y-59450104D01*
X191530104Y-59299792D01*
X191530106Y-59299788D01*
X191530109Y-59299786D01*
X191655048Y-59127820D01*
X191655047Y-59127820D01*
X191655051Y-59127816D01*
X191751557Y-58938412D01*
X191817246Y-58736243D01*
X191850500Y-58526287D01*
X191850500Y-58313713D01*
X191817246Y-58103757D01*
X191751557Y-57901588D01*
X191655051Y-57712184D01*
X191655049Y-57712181D01*
X191655048Y-57712179D01*
X191530109Y-57540213D01*
X191379786Y-57389890D01*
X191207820Y-57264951D01*
X191207115Y-57264591D01*
X191199054Y-57260485D01*
X191148259Y-57212512D01*
X191131463Y-57144692D01*
X191153999Y-57078556D01*
X191199054Y-57039515D01*
X191207816Y-57035051D01*
X191288500Y-56976431D01*
X191379786Y-56910109D01*
X191379788Y-56910106D01*
X191379792Y-56910104D01*
X191530104Y-56759792D01*
X191530106Y-56759788D01*
X191530109Y-56759786D01*
X191655048Y-56587820D01*
X191655047Y-56587820D01*
X191655051Y-56587816D01*
X191751557Y-56398412D01*
X191817246Y-56196243D01*
X191850500Y-55986287D01*
X191850500Y-55773713D01*
X247569500Y-55773713D01*
X247569500Y-55986286D01*
X247602753Y-56196239D01*
X247668444Y-56398414D01*
X247764951Y-56587820D01*
X247889890Y-56759786D01*
X248040213Y-56910109D01*
X248212182Y-57035050D01*
X248220946Y-57039516D01*
X248271742Y-57087491D01*
X248288536Y-57155312D01*
X248265998Y-57221447D01*
X248220946Y-57260484D01*
X248212182Y-57264949D01*
X248040213Y-57389890D01*
X247889890Y-57540213D01*
X247764951Y-57712179D01*
X247668444Y-57901585D01*
X247602753Y-58103760D01*
X247569500Y-58313713D01*
X247569500Y-58526286D01*
X247602753Y-58736239D01*
X247668444Y-58938414D01*
X247764951Y-59127820D01*
X247889890Y-59299786D01*
X248040213Y-59450109D01*
X248212182Y-59575050D01*
X248220946Y-59579516D01*
X248271742Y-59627491D01*
X248288536Y-59695312D01*
X248265998Y-59761447D01*
X248220946Y-59800484D01*
X248212182Y-59804949D01*
X248040213Y-59929890D01*
X247889890Y-60080213D01*
X247764951Y-60252179D01*
X247668444Y-60441585D01*
X247602753Y-60643760D01*
X247569500Y-60853713D01*
X247569500Y-61066286D01*
X247602753Y-61276239D01*
X247668444Y-61478414D01*
X247764951Y-61667820D01*
X247889890Y-61839786D01*
X248040213Y-61990109D01*
X248212182Y-62115050D01*
X248220946Y-62119516D01*
X248271742Y-62167491D01*
X248288536Y-62235312D01*
X248265998Y-62301447D01*
X248220946Y-62340484D01*
X248212182Y-62344949D01*
X248040213Y-62469890D01*
X247889890Y-62620213D01*
X247764951Y-62792179D01*
X247668444Y-62981585D01*
X247602753Y-63183760D01*
X247569500Y-63393713D01*
X247569500Y-63606286D01*
X247602753Y-63816239D01*
X247668444Y-64018414D01*
X247764951Y-64207820D01*
X247889890Y-64379786D01*
X248040213Y-64530109D01*
X248212179Y-64655048D01*
X248212181Y-64655049D01*
X248212184Y-64655051D01*
X248221493Y-64659794D01*
X248272290Y-64707766D01*
X248289087Y-64775587D01*
X248266552Y-64841722D01*
X248221505Y-64880760D01*
X248212446Y-64885376D01*
X248212440Y-64885380D01*
X248158282Y-64924727D01*
X248158282Y-64924728D01*
X248790591Y-65557037D01*
X248727007Y-65574075D01*
X248612993Y-65639901D01*
X248519901Y-65732993D01*
X248454075Y-65847007D01*
X248437037Y-65910591D01*
X247804728Y-65278282D01*
X247804727Y-65278282D01*
X247765380Y-65332439D01*
X247668904Y-65521782D01*
X247603242Y-65723869D01*
X247603242Y-65723872D01*
X247570000Y-65933753D01*
X247570000Y-66146246D01*
X247603242Y-66356127D01*
X247603242Y-66356130D01*
X247668904Y-66558217D01*
X247765375Y-66747550D01*
X247804728Y-66801716D01*
X248437037Y-66169408D01*
X248454075Y-66232993D01*
X248519901Y-66347007D01*
X248612993Y-66440099D01*
X248727007Y-66505925D01*
X248790589Y-66522962D01*
X248158282Y-67155269D01*
X248158282Y-67155270D01*
X248212452Y-67194626D01*
X248212451Y-67194626D01*
X248221495Y-67199234D01*
X248272292Y-67247208D01*
X248289087Y-67315029D01*
X248266550Y-67381164D01*
X248221499Y-67420202D01*
X248212182Y-67424949D01*
X248040213Y-67549890D01*
X247889890Y-67700213D01*
X247764951Y-67872179D01*
X247668444Y-68061585D01*
X247602753Y-68263760D01*
X247569500Y-68473713D01*
X247569500Y-68686286D01*
X247602753Y-68896239D01*
X247668444Y-69098414D01*
X247764951Y-69287820D01*
X247889890Y-69459786D01*
X248040213Y-69610109D01*
X248212182Y-69735050D01*
X248220946Y-69739516D01*
X248271742Y-69787491D01*
X248288536Y-69855312D01*
X248265998Y-69921447D01*
X248220946Y-69960484D01*
X248212182Y-69964949D01*
X248040213Y-70089890D01*
X247889890Y-70240213D01*
X247764951Y-70412179D01*
X247668444Y-70601585D01*
X247602753Y-70803760D01*
X247601431Y-70812110D01*
X247569500Y-71013713D01*
X247569500Y-71226287D01*
X247602754Y-71436243D01*
X247634631Y-71534351D01*
X247668444Y-71638414D01*
X247764951Y-71827820D01*
X247889890Y-71999786D01*
X248040213Y-72150109D01*
X248212182Y-72275050D01*
X248220946Y-72279516D01*
X248271742Y-72327491D01*
X248288536Y-72395312D01*
X248265998Y-72461447D01*
X248220946Y-72500484D01*
X248212182Y-72504949D01*
X248040213Y-72629890D01*
X247889890Y-72780213D01*
X247764951Y-72952179D01*
X247668444Y-73141585D01*
X247602753Y-73343760D01*
X247569500Y-73553713D01*
X247569500Y-73766286D01*
X247602753Y-73976239D01*
X247668444Y-74178414D01*
X247764951Y-74367820D01*
X247889890Y-74539786D01*
X248040213Y-74690109D01*
X248212182Y-74815050D01*
X248220946Y-74819516D01*
X248271742Y-74867491D01*
X248288536Y-74935312D01*
X248265998Y-75001447D01*
X248220946Y-75040484D01*
X248212182Y-75044949D01*
X248040213Y-75169890D01*
X247889890Y-75320213D01*
X247764951Y-75492179D01*
X247668444Y-75681585D01*
X247602753Y-75883760D01*
X247569500Y-76093713D01*
X247569500Y-76306286D01*
X247602753Y-76516239D01*
X247668444Y-76718414D01*
X247764951Y-76907820D01*
X247889890Y-77079786D01*
X248040213Y-77230109D01*
X248212182Y-77355050D01*
X248220946Y-77359516D01*
X248271742Y-77407491D01*
X248288536Y-77475312D01*
X248265998Y-77541447D01*
X248220946Y-77580484D01*
X248212182Y-77584949D01*
X248040213Y-77709890D01*
X247889890Y-77860213D01*
X247764951Y-78032179D01*
X247668444Y-78221585D01*
X247602753Y-78423760D01*
X247569500Y-78633713D01*
X247569500Y-78846286D01*
X247602753Y-79056239D01*
X247668444Y-79258414D01*
X247764951Y-79447820D01*
X247889890Y-79619786D01*
X248040213Y-79770109D01*
X248212182Y-79895050D01*
X248220946Y-79899516D01*
X248271742Y-79947491D01*
X248288536Y-80015312D01*
X248265998Y-80081447D01*
X248220946Y-80120484D01*
X248212182Y-80124949D01*
X248040213Y-80249890D01*
X247889890Y-80400213D01*
X247764951Y-80572179D01*
X247668444Y-80761585D01*
X247602753Y-80963760D01*
X247569500Y-81173713D01*
X247569500Y-81386286D01*
X247602753Y-81596239D01*
X247668444Y-81798414D01*
X247764951Y-81987820D01*
X247889890Y-82159786D01*
X248040213Y-82310109D01*
X248212182Y-82435050D01*
X248220946Y-82439516D01*
X248271742Y-82487491D01*
X248288536Y-82555312D01*
X248265998Y-82621447D01*
X248220946Y-82660484D01*
X248212182Y-82664949D01*
X248040213Y-82789890D01*
X247889890Y-82940213D01*
X247764951Y-83112179D01*
X247668444Y-83301585D01*
X247602753Y-83503760D01*
X247569500Y-83713713D01*
X247569500Y-83926286D01*
X247602753Y-84136239D01*
X247668444Y-84338414D01*
X247764951Y-84527820D01*
X247889890Y-84699786D01*
X248040213Y-84850109D01*
X248212182Y-84975050D01*
X248220946Y-84979516D01*
X248271742Y-85027491D01*
X248288536Y-85095312D01*
X248265998Y-85161447D01*
X248220946Y-85200484D01*
X248212182Y-85204949D01*
X248040213Y-85329890D01*
X247889890Y-85480213D01*
X247764951Y-85652179D01*
X247668444Y-85841585D01*
X247602753Y-86043760D01*
X247569500Y-86253713D01*
X247569500Y-86466286D01*
X247602753Y-86676239D01*
X247668444Y-86878414D01*
X247764951Y-87067820D01*
X247889890Y-87239786D01*
X248040213Y-87390109D01*
X248212182Y-87515050D01*
X248220946Y-87519516D01*
X248271742Y-87567491D01*
X248288536Y-87635312D01*
X248265998Y-87701447D01*
X248220946Y-87740484D01*
X248212182Y-87744949D01*
X248040213Y-87869890D01*
X247889890Y-88020213D01*
X247764951Y-88192179D01*
X247668444Y-88381585D01*
X247602753Y-88583760D01*
X247569500Y-88793713D01*
X247569500Y-89006287D01*
X247602754Y-89216243D01*
X247630321Y-89301086D01*
X247668444Y-89418414D01*
X247764951Y-89607820D01*
X247889890Y-89779786D01*
X248040213Y-89930109D01*
X248212182Y-90055050D01*
X248220946Y-90059516D01*
X248271742Y-90107491D01*
X248288536Y-90175312D01*
X248265998Y-90241447D01*
X248220946Y-90280484D01*
X248212182Y-90284949D01*
X248040213Y-90409890D01*
X247889890Y-90560213D01*
X247764951Y-90732179D01*
X247668444Y-90921585D01*
X247602753Y-91123760D01*
X247602753Y-91123762D01*
X247569500Y-91333713D01*
X247569500Y-91546287D01*
X247602754Y-91756243D01*
X247667068Y-91954181D01*
X247668444Y-91958414D01*
X247764951Y-92147820D01*
X247889890Y-92319786D01*
X248040213Y-92470109D01*
X248212182Y-92595050D01*
X248220946Y-92599516D01*
X248271742Y-92647491D01*
X248288536Y-92715312D01*
X248265998Y-92781447D01*
X248220946Y-92820484D01*
X248212182Y-92824949D01*
X248040213Y-92949890D01*
X248040209Y-92949894D01*
X247889896Y-93100208D01*
X247889890Y-93100213D01*
X247764951Y-93272179D01*
X247668444Y-93461585D01*
X247602753Y-93663760D01*
X247569500Y-93873713D01*
X247569500Y-94086286D01*
X247602753Y-94296239D01*
X247668444Y-94498414D01*
X247764951Y-94687820D01*
X247889890Y-94859786D01*
X248040213Y-95010109D01*
X248212182Y-95135050D01*
X248220946Y-95139516D01*
X248271742Y-95187491D01*
X248288536Y-95255312D01*
X248265998Y-95321447D01*
X248220946Y-95360484D01*
X248212182Y-95364949D01*
X248040213Y-95489890D01*
X247889890Y-95640213D01*
X247764951Y-95812179D01*
X247668444Y-96001585D01*
X247602753Y-96203760D01*
X247569500Y-96413713D01*
X247569500Y-96626286D01*
X247602753Y-96836239D01*
X247668444Y-97038414D01*
X247764951Y-97227820D01*
X247889890Y-97399786D01*
X248040213Y-97550109D01*
X248212182Y-97675050D01*
X248220946Y-97679516D01*
X248271742Y-97727491D01*
X248288536Y-97795312D01*
X248265998Y-97861447D01*
X248220946Y-97900484D01*
X248212182Y-97904949D01*
X248040213Y-98029890D01*
X247889890Y-98180213D01*
X247764951Y-98352179D01*
X247668444Y-98541585D01*
X247602753Y-98743760D01*
X247569500Y-98953713D01*
X247569500Y-99166286D01*
X247602753Y-99376239D01*
X247668444Y-99578414D01*
X247764951Y-99767820D01*
X247889890Y-99939786D01*
X248040213Y-100090109D01*
X248212182Y-100215050D01*
X248220946Y-100219516D01*
X248271742Y-100267491D01*
X248288536Y-100335312D01*
X248265998Y-100401447D01*
X248220946Y-100440484D01*
X248212182Y-100444949D01*
X248040213Y-100569890D01*
X247889890Y-100720213D01*
X247764951Y-100892179D01*
X247668444Y-101081585D01*
X247602753Y-101283760D01*
X247569500Y-101493713D01*
X247569500Y-101706286D01*
X247602753Y-101916239D01*
X247668444Y-102118414D01*
X247764951Y-102307820D01*
X247889890Y-102479786D01*
X248040213Y-102630109D01*
X248212179Y-102755048D01*
X248212181Y-102755049D01*
X248212184Y-102755051D01*
X248401588Y-102851557D01*
X248603757Y-102917246D01*
X248813713Y-102950500D01*
X248813714Y-102950500D01*
X249026286Y-102950500D01*
X249026287Y-102950500D01*
X249236243Y-102917246D01*
X249438412Y-102851557D01*
X249627816Y-102755051D01*
X249649789Y-102739086D01*
X249799786Y-102630109D01*
X249799788Y-102630106D01*
X249799792Y-102630104D01*
X249950104Y-102479792D01*
X249950106Y-102479788D01*
X249950109Y-102479786D01*
X250075048Y-102307820D01*
X250075047Y-102307820D01*
X250075051Y-102307816D01*
X250079514Y-102299054D01*
X250127488Y-102248259D01*
X250195308Y-102231463D01*
X250261444Y-102253999D01*
X250300486Y-102299056D01*
X250304951Y-102307820D01*
X250429890Y-102479786D01*
X250580213Y-102630109D01*
X250752179Y-102755048D01*
X250752181Y-102755049D01*
X250752184Y-102755051D01*
X250941588Y-102851557D01*
X251143757Y-102917246D01*
X251353713Y-102950500D01*
X251353714Y-102950500D01*
X251566286Y-102950500D01*
X251566287Y-102950500D01*
X251776243Y-102917246D01*
X251978412Y-102851557D01*
X252167816Y-102755051D01*
X252189789Y-102739086D01*
X252339786Y-102630109D01*
X252339788Y-102630106D01*
X252339792Y-102630104D01*
X252490104Y-102479792D01*
X252490106Y-102479788D01*
X252490109Y-102479786D01*
X252615048Y-102307820D01*
X252615047Y-102307820D01*
X252615051Y-102307816D01*
X252711557Y-102118412D01*
X252777246Y-101916243D01*
X252810500Y-101706287D01*
X252810500Y-101493713D01*
X252777246Y-101283757D01*
X252711557Y-101081588D01*
X252615051Y-100892184D01*
X252615049Y-100892181D01*
X252615048Y-100892179D01*
X252490109Y-100720213D01*
X252339786Y-100569890D01*
X252167820Y-100444951D01*
X252167115Y-100444591D01*
X252159054Y-100440485D01*
X252108259Y-100392512D01*
X252091463Y-100324692D01*
X252113999Y-100258556D01*
X252159054Y-100219515D01*
X252167816Y-100215051D01*
X252189789Y-100199086D01*
X252339786Y-100090109D01*
X252339788Y-100090106D01*
X252339792Y-100090104D01*
X252490104Y-99939792D01*
X252490106Y-99939788D01*
X252490109Y-99939786D01*
X252615048Y-99767820D01*
X252615047Y-99767820D01*
X252615051Y-99767816D01*
X252711557Y-99578412D01*
X252777246Y-99376243D01*
X252810500Y-99166287D01*
X252810500Y-98953713D01*
X252777246Y-98743757D01*
X252711557Y-98541588D01*
X252615051Y-98352184D01*
X252615049Y-98352181D01*
X252615048Y-98352179D01*
X252490109Y-98180213D01*
X252339786Y-98029890D01*
X252167820Y-97904951D01*
X252167115Y-97904591D01*
X252159054Y-97900485D01*
X252108259Y-97852512D01*
X252091463Y-97784692D01*
X252113999Y-97718556D01*
X252159054Y-97679515D01*
X252167816Y-97675051D01*
X252189789Y-97659086D01*
X252339786Y-97550109D01*
X252339788Y-97550106D01*
X252339792Y-97550104D01*
X252490104Y-97399792D01*
X252490106Y-97399788D01*
X252490109Y-97399786D01*
X252615048Y-97227820D01*
X252615047Y-97227820D01*
X252615051Y-97227816D01*
X252711557Y-97038412D01*
X252777246Y-96836243D01*
X252810500Y-96626287D01*
X252810500Y-96413713D01*
X252777246Y-96203757D01*
X252711557Y-96001588D01*
X252615051Y-95812184D01*
X252615049Y-95812181D01*
X252615048Y-95812179D01*
X252490109Y-95640213D01*
X252339786Y-95489890D01*
X252167820Y-95364951D01*
X252167115Y-95364591D01*
X252159054Y-95360485D01*
X252108259Y-95312512D01*
X252091463Y-95244692D01*
X252113999Y-95178556D01*
X252159054Y-95139515D01*
X252167816Y-95135051D01*
X252189789Y-95119086D01*
X252339786Y-95010109D01*
X252339788Y-95010106D01*
X252339792Y-95010104D01*
X252490104Y-94859792D01*
X252490106Y-94859788D01*
X252490109Y-94859786D01*
X252615048Y-94687820D01*
X252615047Y-94687820D01*
X252615051Y-94687816D01*
X252711557Y-94498412D01*
X252777246Y-94296243D01*
X252810500Y-94086287D01*
X252810500Y-93873713D01*
X252777246Y-93663757D01*
X252711557Y-93461588D01*
X252665804Y-93371794D01*
X252652909Y-93303126D01*
X252679185Y-93238385D01*
X252736291Y-93198128D01*
X252776290Y-93191500D01*
X275622331Y-93191500D01*
X275622347Y-93191501D01*
X275629943Y-93191501D01*
X275788054Y-93191501D01*
X275788057Y-93191501D01*
X275940785Y-93150577D01*
X276028026Y-93100208D01*
X276077716Y-93071520D01*
X276189520Y-92959716D01*
X276189520Y-92959714D01*
X276199724Y-92949511D01*
X276199728Y-92949506D01*
X279149713Y-89999521D01*
X279149716Y-89999520D01*
X279261520Y-89887716D01*
X279311639Y-89800904D01*
X279340577Y-89750785D01*
X279381500Y-89598057D01*
X279381500Y-89439943D01*
X279381500Y-47558539D01*
X279401185Y-47491500D01*
X279402344Y-47489729D01*
X279409394Y-47479179D01*
X279469737Y-47333497D01*
X279500500Y-47178842D01*
X279500500Y-47021158D01*
X279500500Y-47021155D01*
X279500499Y-47021153D01*
X279469738Y-46866510D01*
X279469737Y-46866503D01*
X279469735Y-46866498D01*
X279409397Y-46720827D01*
X279409390Y-46720814D01*
X279321789Y-46589711D01*
X279321786Y-46589707D01*
X279210292Y-46478213D01*
X279210288Y-46478210D01*
X279079185Y-46390609D01*
X279079172Y-46390602D01*
X278933501Y-46330264D01*
X278933489Y-46330261D01*
X278778845Y-46299500D01*
X278778842Y-46299500D01*
X278621158Y-46299500D01*
X278621155Y-46299500D01*
X278466510Y-46330261D01*
X278466498Y-46330264D01*
X278320827Y-46390602D01*
X278320814Y-46390609D01*
X278189711Y-46478210D01*
X278189707Y-46478213D01*
X278078213Y-46589707D01*
X278078210Y-46589711D01*
X277990609Y-46720814D01*
X277990602Y-46720827D01*
X277930264Y-46866498D01*
X277930261Y-46866510D01*
X277899500Y-47021153D01*
X277899500Y-47178846D01*
X277930261Y-47333489D01*
X277930264Y-47333501D01*
X277990602Y-47479172D01*
X277990609Y-47479185D01*
X278078209Y-47610287D01*
X278078210Y-47610288D01*
X278078211Y-47610289D01*
X278144182Y-47676260D01*
X278177666Y-47737581D01*
X278180500Y-47763940D01*
X278180500Y-89218903D01*
X278160815Y-89285942D01*
X278144181Y-89306584D01*
X275496584Y-91954181D01*
X275435261Y-91987666D01*
X275408903Y-91990500D01*
X252871802Y-91990500D01*
X252804763Y-91970815D01*
X252759008Y-91918011D01*
X252749064Y-91848853D01*
X252753871Y-91828182D01*
X252777246Y-91756243D01*
X252810500Y-91546287D01*
X252810500Y-91333713D01*
X252777246Y-91123757D01*
X252763506Y-91081473D01*
X252761512Y-91011635D01*
X252793755Y-90955478D01*
X255958506Y-87790728D01*
X255958511Y-87790724D01*
X255968714Y-87780520D01*
X255968716Y-87780520D01*
X256080520Y-87668716D01*
X256149349Y-87549500D01*
X256159577Y-87531785D01*
X256200500Y-87379057D01*
X256200500Y-87220943D01*
X256200500Y-70019983D01*
X262359500Y-70019983D01*
X262359500Y-72220001D01*
X262359501Y-72220018D01*
X262370000Y-72322796D01*
X262370001Y-72322799D01*
X262425185Y-72489331D01*
X262425187Y-72489336D01*
X262460069Y-72545888D01*
X262517288Y-72638656D01*
X262641344Y-72762712D01*
X262790666Y-72854814D01*
X262957203Y-72909999D01*
X263059991Y-72920500D01*
X265260008Y-72920499D01*
X265362797Y-72909999D01*
X265529334Y-72854814D01*
X265678656Y-72762712D01*
X265802712Y-72638656D01*
X265894814Y-72489334D01*
X265949999Y-72322797D01*
X265960500Y-72220009D01*
X265960499Y-71001995D01*
X267439500Y-71001995D01*
X267439500Y-71238004D01*
X267439501Y-71238020D01*
X267470306Y-71472010D01*
X267531394Y-71699993D01*
X267621714Y-71918045D01*
X267621719Y-71918056D01*
X267668907Y-71999786D01*
X267739727Y-72122450D01*
X267739729Y-72122453D01*
X267739730Y-72122454D01*
X267883406Y-72309697D01*
X267883412Y-72309704D01*
X268050295Y-72476587D01*
X268050302Y-72476593D01*
X268160306Y-72561001D01*
X268237550Y-72620273D01*
X268368918Y-72696118D01*
X268441943Y-72738280D01*
X268441948Y-72738282D01*
X268441951Y-72738284D01*
X268660007Y-72828606D01*
X268887986Y-72889693D01*
X269121989Y-72920500D01*
X269121996Y-72920500D01*
X269358004Y-72920500D01*
X269358011Y-72920500D01*
X269592014Y-72889693D01*
X269819993Y-72828606D01*
X270038049Y-72738284D01*
X270242450Y-72620273D01*
X270429699Y-72476592D01*
X270453779Y-72452512D01*
X270484648Y-72421644D01*
X270596587Y-72309704D01*
X270596592Y-72309699D01*
X270740273Y-72122450D01*
X270858284Y-71918049D01*
X270948606Y-71699993D01*
X271009693Y-71472014D01*
X271040500Y-71238011D01*
X271040500Y-71002014D01*
X272520000Y-71002014D01*
X272520000Y-71237985D01*
X272550799Y-71471914D01*
X272611870Y-71699837D01*
X272702160Y-71917819D01*
X272702165Y-71917828D01*
X272820144Y-72122171D01*
X272820145Y-72122172D01*
X272882721Y-72203723D01*
X273718958Y-71367487D01*
X273743978Y-71427890D01*
X273815112Y-71534351D01*
X273905649Y-71624888D01*
X274012110Y-71696022D01*
X274072511Y-71721041D01*
X273236275Y-72557277D01*
X273317827Y-72619854D01*
X273317828Y-72619855D01*
X273522171Y-72737834D01*
X273522180Y-72737839D01*
X273740163Y-72828129D01*
X273740161Y-72828129D01*
X273968085Y-72889200D01*
X274202014Y-72919999D01*
X274202029Y-72920000D01*
X274437971Y-72920000D01*
X274437985Y-72919999D01*
X274671914Y-72889200D01*
X274899837Y-72828129D01*
X275117819Y-72737839D01*
X275117828Y-72737834D01*
X275322181Y-72619850D01*
X275403723Y-72557279D01*
X275403723Y-72557276D01*
X274567487Y-71721041D01*
X274627890Y-71696022D01*
X274734351Y-71624888D01*
X274824888Y-71534351D01*
X274896022Y-71427890D01*
X274921041Y-71367488D01*
X275757276Y-72203723D01*
X275757279Y-72203723D01*
X275819850Y-72122181D01*
X275937834Y-71917828D01*
X275937839Y-71917819D01*
X276028129Y-71699837D01*
X276089200Y-71471914D01*
X276119999Y-71237985D01*
X276120000Y-71237971D01*
X276120000Y-71002028D01*
X276119999Y-71002014D01*
X276089200Y-70768085D01*
X276028129Y-70540162D01*
X275937839Y-70322180D01*
X275937834Y-70322171D01*
X275819855Y-70117828D01*
X275819854Y-70117827D01*
X275757277Y-70036275D01*
X274921041Y-70872511D01*
X274896022Y-70812110D01*
X274824888Y-70705649D01*
X274734351Y-70615112D01*
X274627890Y-70543978D01*
X274567488Y-70518958D01*
X275403723Y-69682721D01*
X275322172Y-69620145D01*
X275322171Y-69620144D01*
X275117828Y-69502165D01*
X275117819Y-69502160D01*
X274899836Y-69411870D01*
X274899838Y-69411870D01*
X274671914Y-69350799D01*
X274437985Y-69320000D01*
X274202014Y-69320000D01*
X273968085Y-69350799D01*
X273740162Y-69411870D01*
X273522180Y-69502160D01*
X273522171Y-69502165D01*
X273317828Y-69620144D01*
X273317818Y-69620150D01*
X273236275Y-69682720D01*
X273236275Y-69682721D01*
X274072512Y-70518958D01*
X274012110Y-70543978D01*
X273905649Y-70615112D01*
X273815112Y-70705649D01*
X273743978Y-70812110D01*
X273718958Y-70872512D01*
X272882721Y-70036275D01*
X272882720Y-70036275D01*
X272820150Y-70117818D01*
X272820144Y-70117828D01*
X272702165Y-70322171D01*
X272702160Y-70322180D01*
X272611870Y-70540162D01*
X272550799Y-70768085D01*
X272520000Y-71002014D01*
X271040500Y-71002014D01*
X271040500Y-71001989D01*
X271009693Y-70767986D01*
X270948606Y-70540007D01*
X270858284Y-70321951D01*
X270858282Y-70321948D01*
X270858280Y-70321943D01*
X270816118Y-70248918D01*
X270740273Y-70117550D01*
X270596592Y-69930301D01*
X270596587Y-69930295D01*
X270429704Y-69763412D01*
X270429697Y-69763406D01*
X270242454Y-69619730D01*
X270242453Y-69619729D01*
X270242450Y-69619727D01*
X270160957Y-69572677D01*
X270038056Y-69501719D01*
X270038045Y-69501714D01*
X269819993Y-69411394D01*
X269592010Y-69350306D01*
X269358020Y-69319501D01*
X269358017Y-69319500D01*
X269358011Y-69319500D01*
X269121989Y-69319500D01*
X269121983Y-69319500D01*
X269121979Y-69319501D01*
X268887989Y-69350306D01*
X268660006Y-69411394D01*
X268441954Y-69501714D01*
X268441943Y-69501719D01*
X268237545Y-69619730D01*
X268050302Y-69763406D01*
X268050295Y-69763412D01*
X267883412Y-69930295D01*
X267883406Y-69930302D01*
X267739730Y-70117545D01*
X267739727Y-70117549D01*
X267739727Y-70117550D01*
X267732014Y-70130909D01*
X267621719Y-70321943D01*
X267621714Y-70321954D01*
X267531394Y-70540006D01*
X267470306Y-70767989D01*
X267439501Y-71001979D01*
X267439500Y-71001995D01*
X265960499Y-71001995D01*
X265960499Y-70019992D01*
X265949999Y-69917203D01*
X265894814Y-69750666D01*
X265802712Y-69601344D01*
X265678656Y-69477288D01*
X265529334Y-69385186D01*
X265362797Y-69330001D01*
X265362795Y-69330000D01*
X265260010Y-69319500D01*
X263059998Y-69319500D01*
X263059981Y-69319501D01*
X262957203Y-69330000D01*
X262957200Y-69330001D01*
X262790668Y-69385185D01*
X262790663Y-69385187D01*
X262641342Y-69477289D01*
X262517289Y-69601342D01*
X262425187Y-69750663D01*
X262425185Y-69750668D01*
X262420962Y-69763412D01*
X262370001Y-69917203D01*
X262370001Y-69917204D01*
X262370000Y-69917204D01*
X262359500Y-70019983D01*
X256200500Y-70019983D01*
X256200500Y-39700096D01*
X256202837Y-39692135D01*
X265034500Y-39692135D01*
X265034500Y-41587870D01*
X265034501Y-41587876D01*
X265040908Y-41647483D01*
X265091202Y-41782328D01*
X265091206Y-41782335D01*
X265177452Y-41897544D01*
X265177455Y-41897547D01*
X265292664Y-41983793D01*
X265292671Y-41983797D01*
X265427517Y-42034091D01*
X265427516Y-42034091D01*
X265434444Y-42034835D01*
X265487127Y-42040500D01*
X266652872Y-42040499D01*
X266712483Y-42034091D01*
X266847331Y-41983796D01*
X266847335Y-41983792D01*
X266855118Y-41979544D01*
X266856269Y-41981653D01*
X266909614Y-41961749D01*
X266965928Y-41970870D01*
X267037956Y-42000706D01*
X267037960Y-42000706D01*
X267037961Y-42000707D01*
X267238009Y-42040500D01*
X267238012Y-42040500D01*
X267441990Y-42040500D01*
X267592560Y-42010549D01*
X267642044Y-42000706D01*
X267830493Y-41922648D01*
X267906558Y-41871822D01*
X267973234Y-41850944D01*
X268040614Y-41869428D01*
X268044339Y-41871822D01*
X268119742Y-41922204D01*
X268308101Y-42000225D01*
X268308109Y-42000227D01*
X268359999Y-42010549D01*
X268360000Y-42010549D01*
X268360000Y-41197122D01*
X268362383Y-41172929D01*
X268375500Y-41106989D01*
X268375500Y-40966492D01*
X268455606Y-41012741D01*
X268557339Y-41040000D01*
X268662661Y-41040000D01*
X268764394Y-41012741D01*
X268844500Y-40966492D01*
X268844500Y-41106989D01*
X268857617Y-41172929D01*
X268860000Y-41197122D01*
X268860000Y-42010549D01*
X268911890Y-42000227D01*
X268911898Y-42000225D01*
X269100252Y-41922206D01*
X269100256Y-41922204D01*
X269175658Y-41871822D01*
X269242336Y-41850944D01*
X269309716Y-41869428D01*
X269313401Y-41871796D01*
X269389507Y-41922648D01*
X269389509Y-41922649D01*
X269389513Y-41922651D01*
X269577951Y-42000704D01*
X269577956Y-42000706D01*
X269577960Y-42000706D01*
X269577961Y-42000707D01*
X269778009Y-42040500D01*
X269778012Y-42040500D01*
X269981990Y-42040500D01*
X270132560Y-42010549D01*
X270182044Y-42000706D01*
X270370493Y-41922648D01*
X270371158Y-41922204D01*
X270446558Y-41871823D01*
X270540093Y-41809325D01*
X270684325Y-41665093D01*
X270797648Y-41495493D01*
X270875706Y-41307044D01*
X270897571Y-41197122D01*
X270915500Y-41106990D01*
X270915500Y-40173009D01*
X270875707Y-39972961D01*
X270875706Y-39972960D01*
X270875706Y-39972956D01*
X270875704Y-39972951D01*
X270797651Y-39784513D01*
X270797644Y-39784500D01*
X270684325Y-39614907D01*
X270684322Y-39614903D01*
X270540096Y-39470677D01*
X270540092Y-39470674D01*
X270370499Y-39357355D01*
X270370486Y-39357348D01*
X270182048Y-39279295D01*
X270182038Y-39279292D01*
X269981990Y-39239500D01*
X269981988Y-39239500D01*
X269778012Y-39239500D01*
X269778010Y-39239500D01*
X269577961Y-39279292D01*
X269577951Y-39279295D01*
X269389511Y-39357349D01*
X269313438Y-39408178D01*
X269246760Y-39429054D01*
X269179380Y-39410568D01*
X269175659Y-39408177D01*
X269100254Y-39357794D01*
X268911896Y-39279773D01*
X268911893Y-39279772D01*
X268860000Y-39269449D01*
X268860000Y-40082876D01*
X268857617Y-40107068D01*
X268844500Y-40173010D01*
X268844500Y-40313507D01*
X268764394Y-40267259D01*
X268662661Y-40240000D01*
X268557339Y-40240000D01*
X268455606Y-40267259D01*
X268375500Y-40313507D01*
X268375500Y-40178256D01*
X268375500Y-40173012D01*
X268362219Y-40106246D01*
X268362057Y-40105366D01*
X268362138Y-40104582D01*
X268360000Y-40082876D01*
X268360000Y-39269450D01*
X268359999Y-39269449D01*
X268308106Y-39279772D01*
X268308103Y-39279773D01*
X268119745Y-39357794D01*
X268044339Y-39408178D01*
X267977661Y-39429055D01*
X267910281Y-39410570D01*
X267906558Y-39408177D01*
X267831154Y-39357794D01*
X267830493Y-39357352D01*
X267830492Y-39357351D01*
X267830490Y-39357350D01*
X267642048Y-39279295D01*
X267642038Y-39279292D01*
X267441990Y-39239500D01*
X267441988Y-39239500D01*
X267238012Y-39239500D01*
X267238010Y-39239500D01*
X267037962Y-39279292D01*
X267037959Y-39279293D01*
X267037957Y-39279293D01*
X267037956Y-39279294D01*
X266990487Y-39298956D01*
X266965927Y-39309129D01*
X266896458Y-39316597D01*
X266855931Y-39298956D01*
X266855114Y-39300454D01*
X266847328Y-39296202D01*
X266712482Y-39245908D01*
X266712483Y-39245908D01*
X266652883Y-39239501D01*
X266652881Y-39239500D01*
X266652873Y-39239500D01*
X266652864Y-39239500D01*
X265487129Y-39239500D01*
X265487123Y-39239501D01*
X265427516Y-39245908D01*
X265292671Y-39296202D01*
X265292664Y-39296206D01*
X265177455Y-39382452D01*
X265177452Y-39382455D01*
X265091206Y-39497664D01*
X265091202Y-39497671D01*
X265040908Y-39632517D01*
X265034501Y-39692116D01*
X265034500Y-39692135D01*
X256202837Y-39692135D01*
X256209144Y-39670655D01*
X256215668Y-39640669D01*
X256219422Y-39635653D01*
X256220185Y-39633057D01*
X256236814Y-39612420D01*
X259868713Y-35980521D01*
X259868716Y-35980520D01*
X259980520Y-35868716D01*
X260030639Y-35781904D01*
X260059577Y-35731785D01*
X260100501Y-35579057D01*
X260100501Y-35420943D01*
X260100501Y-35413348D01*
X260100500Y-35413330D01*
X260100500Y-35279765D01*
X260120185Y-35212726D01*
X260121398Y-35210874D01*
X260153387Y-35163000D01*
X260209394Y-35079179D01*
X260269737Y-34933497D01*
X260300500Y-34778842D01*
X260300500Y-34621158D01*
X260300500Y-34621155D01*
X260300499Y-34621153D01*
X260269738Y-34466510D01*
X260269737Y-34466503D01*
X260269735Y-34466498D01*
X260209397Y-34320827D01*
X260209390Y-34320814D01*
X260121789Y-34189711D01*
X260121786Y-34189707D01*
X260010292Y-34078213D01*
X260010288Y-34078210D01*
X259879185Y-33990609D01*
X259879172Y-33990602D01*
X259733501Y-33930264D01*
X259733489Y-33930261D01*
X259578845Y-33899500D01*
X259578842Y-33899500D01*
X259421158Y-33899500D01*
X259421155Y-33899500D01*
X259266510Y-33930261D01*
X259266498Y-33930264D01*
X259120827Y-33990602D01*
X259120814Y-33990609D01*
X258989711Y-34078210D01*
X258989707Y-34078213D01*
X258878213Y-34189707D01*
X258878210Y-34189711D01*
X258790609Y-34320814D01*
X258790602Y-34320827D01*
X258730264Y-34466498D01*
X258730261Y-34466510D01*
X258699500Y-34621153D01*
X258699500Y-34778846D01*
X258730261Y-34933489D01*
X258730264Y-34933501D01*
X258790602Y-35079172D01*
X258790609Y-35079185D01*
X258846613Y-35163000D01*
X258867491Y-35229677D01*
X258849007Y-35297058D01*
X258831192Y-35319572D01*
X256629102Y-37521661D01*
X256567779Y-37555146D01*
X256498087Y-37550162D01*
X256453740Y-37521661D01*
X256410292Y-37478213D01*
X256410288Y-37478210D01*
X256279185Y-37390609D01*
X256279172Y-37390602D01*
X256133501Y-37330264D01*
X256133489Y-37330261D01*
X255978845Y-37299500D01*
X255978842Y-37299500D01*
X255821158Y-37299500D01*
X255821155Y-37299500D01*
X255666510Y-37330261D01*
X255666498Y-37330264D01*
X255520827Y-37390602D01*
X255520814Y-37390609D01*
X255389711Y-37478210D01*
X255389707Y-37478213D01*
X255278213Y-37589707D01*
X255278210Y-37589711D01*
X255190609Y-37720814D01*
X255190602Y-37720827D01*
X255130264Y-37866498D01*
X255130261Y-37866508D01*
X255099361Y-38021850D01*
X255066976Y-38083761D01*
X255065425Y-38085339D01*
X249828481Y-43322282D01*
X249828479Y-43322285D01*
X249778361Y-43409094D01*
X249778359Y-43409096D01*
X249749425Y-43459209D01*
X249749424Y-43459210D01*
X249749423Y-43459215D01*
X249708499Y-43611943D01*
X249708499Y-43611945D01*
X249708499Y-43780046D01*
X249708500Y-43780059D01*
X249708500Y-54563709D01*
X249688815Y-54630748D01*
X249636011Y-54676503D01*
X249566853Y-54686447D01*
X249528206Y-54674194D01*
X249438417Y-54628445D01*
X249438414Y-54628444D01*
X249438412Y-54628443D01*
X249236243Y-54562754D01*
X249236241Y-54562753D01*
X249236240Y-54562753D01*
X249074957Y-54537208D01*
X249026287Y-54529500D01*
X248813713Y-54529500D01*
X248765042Y-54537208D01*
X248603760Y-54562753D01*
X248401585Y-54628444D01*
X248212179Y-54724951D01*
X248040213Y-54849890D01*
X247889890Y-55000213D01*
X247764951Y-55172179D01*
X247668444Y-55361585D01*
X247602753Y-55563760D01*
X247569500Y-55773713D01*
X191850500Y-55773713D01*
X191817246Y-55563757D01*
X191751557Y-55361588D01*
X191655051Y-55172184D01*
X191655049Y-55172181D01*
X191655048Y-55172179D01*
X191530109Y-55000213D01*
X191379786Y-54849890D01*
X191207820Y-54724951D01*
X191018414Y-54628444D01*
X191018413Y-54628443D01*
X191018412Y-54628443D01*
X190816243Y-54562754D01*
X190816241Y-54562753D01*
X190816240Y-54562753D01*
X190654957Y-54537208D01*
X190606287Y-54529500D01*
X190393713Y-54529500D01*
X190345042Y-54537208D01*
X190183760Y-54562753D01*
X189981585Y-54628444D01*
X189792179Y-54724951D01*
X189620213Y-54849890D01*
X189469890Y-55000213D01*
X189344949Y-55172182D01*
X189340484Y-55180946D01*
X189292509Y-55231742D01*
X189224688Y-55248536D01*
X189158553Y-55225998D01*
X189119516Y-55180946D01*
X189115050Y-55172182D01*
X188990109Y-55000213D01*
X188839786Y-54849890D01*
X188667820Y-54724951D01*
X188478414Y-54628444D01*
X188478413Y-54628443D01*
X188478412Y-54628443D01*
X188276243Y-54562754D01*
X188276241Y-54562753D01*
X188276240Y-54562753D01*
X188114957Y-54537208D01*
X188066287Y-54529500D01*
X187853713Y-54529500D01*
X187805042Y-54537208D01*
X187643760Y-54562753D01*
X187441585Y-54628444D01*
X187252179Y-54724951D01*
X187080213Y-54849890D01*
X186929890Y-55000213D01*
X186804951Y-55172179D01*
X186708444Y-55361585D01*
X186642753Y-55563760D01*
X186609500Y-55773713D01*
X183517056Y-55773713D01*
X183551483Y-40178256D01*
X183570535Y-31547737D01*
X183573138Y-30368607D01*
X183576142Y-29007737D01*
X183578734Y-27833753D01*
X186610000Y-27833753D01*
X186610000Y-28046246D01*
X186643242Y-28256127D01*
X186643242Y-28256130D01*
X186708904Y-28458217D01*
X186805375Y-28647550D01*
X186844728Y-28701716D01*
X187477037Y-28069408D01*
X187494075Y-28132993D01*
X187559901Y-28247007D01*
X187652993Y-28340099D01*
X187767007Y-28405925D01*
X187830591Y-28422962D01*
X187229971Y-29023581D01*
X187308711Y-29140895D01*
X187309920Y-29144729D01*
X187312844Y-29147491D01*
X187320343Y-29177778D01*
X187329727Y-29207529D01*
X187328671Y-29211408D01*
X187329638Y-29215312D01*
X187319573Y-29244844D01*
X187311383Y-29274947D01*
X187308397Y-29277640D01*
X187307100Y-29281447D01*
X187262051Y-29320483D01*
X187252440Y-29325380D01*
X187198282Y-29364727D01*
X187198282Y-29364728D01*
X187830591Y-29997037D01*
X187767007Y-30014075D01*
X187652993Y-30079901D01*
X187559901Y-30172993D01*
X187494075Y-30287007D01*
X187477037Y-30350590D01*
X186844728Y-29718282D01*
X186844727Y-29718282D01*
X186805380Y-29772439D01*
X186708904Y-29961782D01*
X186643242Y-30163869D01*
X186643242Y-30163872D01*
X186610000Y-30373753D01*
X186610000Y-30586246D01*
X186643242Y-30796127D01*
X186643242Y-30796130D01*
X186708904Y-30998217D01*
X186805375Y-31187550D01*
X186844728Y-31241716D01*
X187477037Y-30609408D01*
X187494075Y-30672993D01*
X187559901Y-30787007D01*
X187652993Y-30880099D01*
X187767007Y-30945925D01*
X187830590Y-30962962D01*
X187198282Y-31595269D01*
X187198282Y-31595270D01*
X187252449Y-31634624D01*
X187441782Y-31731095D01*
X187643870Y-31796757D01*
X187853754Y-31830000D01*
X188066246Y-31830000D01*
X188276127Y-31796757D01*
X188276130Y-31796757D01*
X188478217Y-31731095D01*
X188667554Y-31634622D01*
X188721716Y-31595270D01*
X188721717Y-31595270D01*
X188089408Y-30962962D01*
X188152993Y-30945925D01*
X188267007Y-30880099D01*
X188360099Y-30787007D01*
X188425925Y-30672993D01*
X188442962Y-30609408D01*
X189075270Y-31241717D01*
X189075270Y-31241716D01*
X189114622Y-31187554D01*
X189211095Y-30998217D01*
X189276757Y-30796130D01*
X189276757Y-30796127D01*
X189310000Y-30586246D01*
X189310000Y-30373753D01*
X189276757Y-30163872D01*
X189276757Y-30163869D01*
X189211095Y-29961782D01*
X189114624Y-29772449D01*
X189075270Y-29718282D01*
X189075269Y-29718282D01*
X188442962Y-30350590D01*
X188425925Y-30287007D01*
X188360099Y-30172993D01*
X188267007Y-30079901D01*
X188152993Y-30014075D01*
X188089409Y-29997037D01*
X188721716Y-29364728D01*
X188667550Y-29325375D01*
X188657954Y-29320486D01*
X188607157Y-29272512D01*
X188590361Y-29204692D01*
X188611288Y-29140895D01*
X188690027Y-29023581D01*
X188089408Y-28422962D01*
X188152993Y-28405925D01*
X188267007Y-28340099D01*
X188360099Y-28247007D01*
X188425925Y-28132993D01*
X188442962Y-28069408D01*
X189075270Y-28701717D01*
X189075270Y-28701716D01*
X189114622Y-28647554D01*
X189211095Y-28458217D01*
X189276757Y-28256130D01*
X189276757Y-28256127D01*
X189310000Y-28046246D01*
X189310000Y-27833753D01*
X250110000Y-27833753D01*
X250110000Y-28046246D01*
X250143242Y-28256127D01*
X250143242Y-28256130D01*
X250208904Y-28458217D01*
X250305375Y-28647550D01*
X250344728Y-28701716D01*
X250977037Y-28069408D01*
X250994075Y-28132993D01*
X251059901Y-28247007D01*
X251152993Y-28340099D01*
X251267007Y-28405925D01*
X251330590Y-28422962D01*
X250698282Y-29055269D01*
X250698282Y-29055270D01*
X250752452Y-29094626D01*
X250762048Y-29099516D01*
X250812844Y-29147491D01*
X250829638Y-29215312D01*
X250807100Y-29281447D01*
X250762051Y-29320483D01*
X250752440Y-29325380D01*
X250698282Y-29364727D01*
X250698282Y-29364728D01*
X251330591Y-29997037D01*
X251267007Y-30014075D01*
X251152993Y-30079901D01*
X251059901Y-30172993D01*
X250994075Y-30287007D01*
X250977037Y-30350591D01*
X250344728Y-29718282D01*
X250344727Y-29718282D01*
X250305380Y-29772439D01*
X250208904Y-29961782D01*
X250143242Y-30163869D01*
X250143242Y-30163872D01*
X250110000Y-30373753D01*
X250110000Y-30586246D01*
X250143242Y-30796127D01*
X250143242Y-30796130D01*
X250208904Y-30998217D01*
X250305375Y-31187550D01*
X250344728Y-31241716D01*
X250977037Y-30609408D01*
X250994075Y-30672993D01*
X251059901Y-30787007D01*
X251152993Y-30880099D01*
X251267007Y-30945925D01*
X251330590Y-30962962D01*
X250698282Y-31595269D01*
X250698282Y-31595270D01*
X250752449Y-31634624D01*
X250941782Y-31731095D01*
X251143870Y-31796757D01*
X251353754Y-31830000D01*
X251566246Y-31830000D01*
X251776127Y-31796757D01*
X251776130Y-31796757D01*
X251978217Y-31731095D01*
X252167554Y-31634622D01*
X252221716Y-31595270D01*
X252221717Y-31595270D01*
X251589408Y-30962962D01*
X251652993Y-30945925D01*
X251767007Y-30880099D01*
X251860099Y-30787007D01*
X251925925Y-30672993D01*
X251942962Y-30609408D01*
X252575270Y-31241717D01*
X252575270Y-31241716D01*
X252614622Y-31187554D01*
X252711095Y-30998217D01*
X252776757Y-30796130D01*
X252776757Y-30796127D01*
X252810000Y-30586246D01*
X252810000Y-30373753D01*
X252776757Y-30163872D01*
X252776757Y-30163869D01*
X252711095Y-29961782D01*
X252614624Y-29772449D01*
X252575270Y-29718282D01*
X252575269Y-29718282D01*
X251942962Y-30350590D01*
X251925925Y-30287007D01*
X251860099Y-30172993D01*
X251767007Y-30079901D01*
X251652993Y-30014075D01*
X251589409Y-29997037D01*
X252221716Y-29364728D01*
X252167550Y-29325375D01*
X252157954Y-29320486D01*
X252107157Y-29272512D01*
X252090361Y-29204692D01*
X252112897Y-29138556D01*
X252157954Y-29099514D01*
X252167554Y-29094622D01*
X252221716Y-29055270D01*
X252221717Y-29055270D01*
X251589408Y-28422962D01*
X251652993Y-28405925D01*
X251767007Y-28340099D01*
X251860099Y-28247007D01*
X251925925Y-28132993D01*
X251942962Y-28069408D01*
X252575270Y-28701717D01*
X252575270Y-28701716D01*
X252614622Y-28647554D01*
X252711095Y-28458217D01*
X252776757Y-28256130D01*
X252776757Y-28256127D01*
X252810000Y-28046246D01*
X252810000Y-27833753D01*
X252776757Y-27623872D01*
X252776757Y-27623869D01*
X252711095Y-27421782D01*
X252614624Y-27232449D01*
X252575270Y-27178282D01*
X252575269Y-27178282D01*
X251942962Y-27810590D01*
X251925925Y-27747007D01*
X251860099Y-27632993D01*
X251767007Y-27539901D01*
X251652993Y-27474075D01*
X251589409Y-27457037D01*
X252221716Y-26824728D01*
X252167550Y-26785375D01*
X251978217Y-26688904D01*
X251776129Y-26623242D01*
X251566246Y-26590000D01*
X251353754Y-26590000D01*
X251143872Y-26623242D01*
X251143869Y-26623242D01*
X250941782Y-26688904D01*
X250752439Y-26785380D01*
X250698282Y-26824727D01*
X250698282Y-26824728D01*
X251330591Y-27457037D01*
X251267007Y-27474075D01*
X251152993Y-27539901D01*
X251059901Y-27632993D01*
X250994075Y-27747007D01*
X250977037Y-27810591D01*
X250344728Y-27178282D01*
X250344727Y-27178282D01*
X250305380Y-27232439D01*
X250208904Y-27421782D01*
X250143242Y-27623869D01*
X250143242Y-27623872D01*
X250110000Y-27833753D01*
X189310000Y-27833753D01*
X189276757Y-27623872D01*
X189276757Y-27623869D01*
X189211095Y-27421782D01*
X189114624Y-27232449D01*
X189075270Y-27178282D01*
X189075269Y-27178282D01*
X188442962Y-27810590D01*
X188425925Y-27747007D01*
X188360099Y-27632993D01*
X188267007Y-27539901D01*
X188152993Y-27474075D01*
X188089409Y-27457037D01*
X188721716Y-26824728D01*
X188667550Y-26785375D01*
X188478217Y-26688904D01*
X188276129Y-26623242D01*
X188066246Y-26590000D01*
X187853754Y-26590000D01*
X187643872Y-26623242D01*
X187643869Y-26623242D01*
X187441782Y-26688904D01*
X187252439Y-26785380D01*
X187198282Y-26824727D01*
X187198282Y-26824728D01*
X187830591Y-27457037D01*
X187767007Y-27474075D01*
X187652993Y-27539901D01*
X187559901Y-27632993D01*
X187494075Y-27747007D01*
X187477037Y-27810590D01*
X186844728Y-27178282D01*
X186844727Y-27178282D01*
X186805380Y-27232439D01*
X186708904Y-27421782D01*
X186643242Y-27623869D01*
X186643242Y-27623872D01*
X186610000Y-27833753D01*
X183578734Y-27833753D01*
X183578745Y-27828607D01*
X183580857Y-26871713D01*
X183588032Y-23621717D01*
X183591695Y-21962135D01*
X265989500Y-21962135D01*
X265989500Y-23757870D01*
X265989501Y-23757876D01*
X265995908Y-23817483D01*
X266046202Y-23952328D01*
X266046206Y-23952335D01*
X266132452Y-24067544D01*
X266132455Y-24067547D01*
X266247664Y-24153793D01*
X266247671Y-24153797D01*
X266382517Y-24204091D01*
X266382516Y-24204091D01*
X266389444Y-24204835D01*
X266442127Y-24210500D01*
X268237872Y-24210499D01*
X268297483Y-24204091D01*
X268432331Y-24153796D01*
X268547546Y-24067546D01*
X268633796Y-23952331D01*
X268682810Y-23820916D01*
X268724681Y-23764984D01*
X268790145Y-23740566D01*
X268858418Y-23755417D01*
X268886673Y-23776569D01*
X269000213Y-23890109D01*
X269172179Y-24015048D01*
X269172181Y-24015049D01*
X269172184Y-24015051D01*
X269361588Y-24111557D01*
X269563757Y-24177246D01*
X269773713Y-24210500D01*
X269773714Y-24210500D01*
X269986286Y-24210500D01*
X269986287Y-24210500D01*
X270196243Y-24177246D01*
X270398412Y-24111557D01*
X270587816Y-24015051D01*
X270674138Y-23952335D01*
X270759786Y-23890109D01*
X270759788Y-23890106D01*
X270759792Y-23890104D01*
X270910104Y-23739792D01*
X270910106Y-23739788D01*
X270910109Y-23739786D01*
X271035048Y-23567820D01*
X271035047Y-23567820D01*
X271035051Y-23567816D01*
X271039514Y-23559054D01*
X271087488Y-23508259D01*
X271155308Y-23491463D01*
X271221444Y-23513999D01*
X271260486Y-23559056D01*
X271264951Y-23567820D01*
X271389890Y-23739786D01*
X271540213Y-23890109D01*
X271712179Y-24015048D01*
X271712181Y-24015049D01*
X271712184Y-24015051D01*
X271901588Y-24111557D01*
X272103757Y-24177246D01*
X272313713Y-24210500D01*
X272313714Y-24210500D01*
X272526286Y-24210500D01*
X272526287Y-24210500D01*
X272736243Y-24177246D01*
X272938412Y-24111557D01*
X273127816Y-24015051D01*
X273214138Y-23952335D01*
X273299786Y-23890109D01*
X273299788Y-23890106D01*
X273299792Y-23890104D01*
X273450104Y-23739792D01*
X273450106Y-23739788D01*
X273450109Y-23739786D01*
X273535890Y-23621717D01*
X273575051Y-23567816D01*
X273579793Y-23558508D01*
X273627763Y-23507711D01*
X273695583Y-23490911D01*
X273761719Y-23513445D01*
X273800763Y-23558500D01*
X273805373Y-23567547D01*
X273844728Y-23621716D01*
X274477037Y-22989408D01*
X274494075Y-23052993D01*
X274559901Y-23167007D01*
X274652993Y-23260099D01*
X274767007Y-23325925D01*
X274830590Y-23342962D01*
X274198282Y-23975269D01*
X274198282Y-23975270D01*
X274252449Y-24014624D01*
X274441782Y-24111095D01*
X274643870Y-24176757D01*
X274853754Y-24210000D01*
X275066246Y-24210000D01*
X275276127Y-24176757D01*
X275276130Y-24176757D01*
X275478217Y-24111095D01*
X275667554Y-24014622D01*
X275721716Y-23975270D01*
X275721717Y-23975270D01*
X275089408Y-23342962D01*
X275152993Y-23325925D01*
X275267007Y-23260099D01*
X275360099Y-23167007D01*
X275425925Y-23052993D01*
X275442962Y-22989408D01*
X276075270Y-23621717D01*
X276075270Y-23621716D01*
X276114622Y-23567554D01*
X276211095Y-23378217D01*
X276276757Y-23176130D01*
X276276757Y-23176127D01*
X276310000Y-22966246D01*
X276310000Y-22753753D01*
X276276757Y-22543872D01*
X276276757Y-22543869D01*
X276211095Y-22341782D01*
X276114624Y-22152449D01*
X276075270Y-22098282D01*
X276075269Y-22098282D01*
X275442962Y-22730590D01*
X275425925Y-22667007D01*
X275360099Y-22552993D01*
X275267007Y-22459901D01*
X275152993Y-22394075D01*
X275089409Y-22377037D01*
X275721716Y-21744728D01*
X275667550Y-21705375D01*
X275478217Y-21608904D01*
X275276129Y-21543242D01*
X275066246Y-21510000D01*
X274853754Y-21510000D01*
X274643872Y-21543242D01*
X274643869Y-21543242D01*
X274441782Y-21608904D01*
X274252439Y-21705380D01*
X274198282Y-21744727D01*
X274198282Y-21744728D01*
X274830591Y-22377037D01*
X274767007Y-22394075D01*
X274652993Y-22459901D01*
X274559901Y-22552993D01*
X274494075Y-22667007D01*
X274477037Y-22730590D01*
X273844728Y-22098282D01*
X273844727Y-22098282D01*
X273805380Y-22152440D01*
X273805376Y-22152446D01*
X273800760Y-22161505D01*
X273752781Y-22212297D01*
X273684959Y-22229087D01*
X273618826Y-22206543D01*
X273579794Y-22161493D01*
X273575051Y-22152184D01*
X273575049Y-22152181D01*
X273575048Y-22152179D01*
X273450109Y-21980213D01*
X273299786Y-21829890D01*
X273127820Y-21704951D01*
X272938414Y-21608444D01*
X272938413Y-21608443D01*
X272938412Y-21608443D01*
X272736243Y-21542754D01*
X272736241Y-21542753D01*
X272736240Y-21542753D01*
X272574957Y-21517208D01*
X272526287Y-21509500D01*
X272313713Y-21509500D01*
X272265042Y-21517208D01*
X272103760Y-21542753D01*
X271901585Y-21608444D01*
X271712179Y-21704951D01*
X271540213Y-21829890D01*
X271389890Y-21980213D01*
X271264949Y-22152182D01*
X271260484Y-22160946D01*
X271212509Y-22211742D01*
X271144688Y-22228536D01*
X271078553Y-22205998D01*
X271039516Y-22160946D01*
X271035050Y-22152182D01*
X270910109Y-21980213D01*
X270759786Y-21829890D01*
X270587820Y-21704951D01*
X270398414Y-21608444D01*
X270398413Y-21608443D01*
X270398412Y-21608443D01*
X270196243Y-21542754D01*
X270196241Y-21542753D01*
X270196240Y-21542753D01*
X270034957Y-21517208D01*
X269986287Y-21509500D01*
X269773713Y-21509500D01*
X269725042Y-21517208D01*
X269563760Y-21542753D01*
X269361585Y-21608444D01*
X269172179Y-21704951D01*
X269000215Y-21829889D01*
X268886673Y-21943431D01*
X268825350Y-21976915D01*
X268755658Y-21971931D01*
X268699725Y-21930059D01*
X268682810Y-21899082D01*
X268633797Y-21767671D01*
X268633793Y-21767664D01*
X268547547Y-21652455D01*
X268547544Y-21652452D01*
X268432335Y-21566206D01*
X268432328Y-21566202D01*
X268297482Y-21515908D01*
X268297483Y-21515908D01*
X268237883Y-21509501D01*
X268237881Y-21509500D01*
X268237873Y-21509500D01*
X268237864Y-21509500D01*
X266442129Y-21509500D01*
X266442123Y-21509501D01*
X266382516Y-21515908D01*
X266247671Y-21566202D01*
X266247664Y-21566206D01*
X266132455Y-21652452D01*
X266132452Y-21652455D01*
X266046206Y-21767664D01*
X266046202Y-21767671D01*
X265995908Y-21902517D01*
X265989501Y-21962116D01*
X265989500Y-21962135D01*
X183591695Y-21962135D01*
X183599549Y-18404225D01*
X183619382Y-18337230D01*
X183672287Y-18291592D01*
X183723549Y-18280500D01*
X281076336Y-18280500D01*
X281143375Y-18300185D01*
G37*
%TD.AperFunction*%
%TD*%
M02*
